<svg height="434pt" viewBox="-51 0 434 434.972" width="434pt" xmlns="http://www.w3.org/2000/svg"><path d="m197.21875 316.945312h-81.238281l24.988281-164.289062h31.261719zm0 0" fill="#0162a7"/><path d="m183.070312 223.929688-10.839843-71.273438h-31.261719l-7.28125 47.851562c14.433594 11.515626 31.335938 19.53125 49.382812 23.421876zm0 0" fill="#004584"/><path d="m172.230469 152.65625h-17.84375l24.988281 164.289062h17.84375zm0 0" fill="#004584"/><path d="m271.960938 312.871094c-11.265626.003906-22.308594 3.140625-31.894532 9.066406-11.078125-41.605469-50.097656-69.511719-93.046875-66.554688-42.953125 2.957032-77.777343 35.953126-83.046875 78.679688-19.214844-4.746094-39.445312 2.003906-51.957031 17.335938-12.511719 15.335937-15.066406 36.507812-6.558594 54.378906 8.507813 17.867187 26.550781 29.234375 46.34375 29.191406h220.160157c33.714843 0 61.046874-27.332031 61.046874-61.046875 0-33.71875-27.332031-61.050781-61.046874-61.050781zm0 0" fill="#26a3b9"/><path d="m231.117188 300.386719c-.75-1.289063-1.523438-2.558594-2.328126-3.808594-.402343-.621094-.800781-1.25-1.203124-1.863281-.703126-1.03125-1.4375-2.039063-2.183594-3.039063-.742188-1-2.484375-3.199219-3.28125-4.167969-.367188-.441406-.714844-.894531-1.089844-1.328124-19.984375-23.382813-50.667969-34.726563-81.058594-29.96875 9.570313 1.449218 18.84375 4.445312 27.449219 8.875 24.664063 13.332031 40.644531 38.507812 42.214844 66.503906.378906 4.8125 1.070312 9.597656 2.066406 14.324218.441406 2.042969 2.1875 3.542969 4.269531 3.667969 2.085938.128907 4-1.144531 4.6875-3.117187 3.410156-10.1875 10.277344-18.863282 19.40625-24.527344-1.894531-7.09375-4.667968-13.925781-8.253906-20.332031-.210938-.410157-.464844-.8125-.695312-1.21875zm0 0" fill="#168aa5"/><path d="m271.960938 312.871094c-4.5.003906-8.984376.511718-13.375 1.511718 30.363281 6.800782 50.746093 35.351563 47.320312 66.277344-3.421875 30.921875-29.5625 54.320313-60.675781 54.3125h26.730469c33.714843 0 61.046874-27.332031 61.046874-61.046875 0-33.71875-27.332031-61.050781-61.046874-61.050781zm0 0" fill="#168aa5"/><path d="m210.609375 107.113281-24.03125-24.035156 62.136719-52.523437 14.421875 14.421874zm0 0" fill="#d9ecf2"/><path d="m255.980469 37.820312-52.523438 62.140626-16.878906-16.882813 24.03125 24.035156 52.523437-62.136719zm0 0" fill="#bdd9e5"/><path d="m242.574219 35.746094c2.054687 7.476562 7.894531 13.316406 15.371093 15.371094l5.199219-6.140626-14.402343-14.402343zm0 0" fill="#bdd9e5"/><path d="m286.003906 7.6875c8.894532 8.894531 8.894532 23.316406 0 32.210938-8.894531 8.894531-23.3125 8.894531-32.207031 0-8.894531-8.894532-8.894531-23.316407 0-32.210938s23.3125-8.894531 32.207031 0zm0 0" fill="#0162a7"/><path d="m286 7.6875c-5.660156-5.632812-13.863281-7.878906-21.601562-5.90625 10.164062 2.460938 17.324218 11.558594 17.324218 22.015625s-7.160156 19.554687-17.324218 22.015625c9.921874 2.507812 20.292968-1.921875 25.339843-10.824219 5.042969-8.902343 3.511719-20.078125-3.738281-27.296875zm0 0" fill="#004584"/><path d="m293.691406 170.183594c-46.996094 46.996094-123.1875 46.996094-170.183594 0-46.992187-46.996094-46.992187-123.1875 0-170.183594zm0 0" fill="#d9ecf2"/><path d="m123.507812 0c-5.777343 5.769531-10.953124 12.113281-15.453124 18.929688l151.261718 151.253906c-18.347656 18.398437-42.183594 30.332031-67.90625 34 37.550782 5.453125 75.46875-7.152344 102.28125-34zm0 0" fill="#bdd9e5"/><path d="m141.417969 17.90625c-37.039063 37.128906-37.039063 97.238281 0 134.367188 2.734375 2.730468 7.167969 2.730468 9.902343 0 2.734376-2.734376 2.734376-7.167969 0-9.902344-31.585937-31.65625-31.585937-82.90625 0-114.566406zm0 0" fill="#bdd9e5"/><path d="m141.417969 17.90625c-5.78125 5.828125-10.785157 12.382812-14.875 19.5l10.230469 10.230469c3.804687-7.316407 8.710937-14.003907 14.542968-19.832031zm0 0" fill="#d9ecf2"/></svg>