<svg height="407pt" viewBox="0 0 407 407.76604" width="407pt" xmlns="http://www.w3.org/2000/svg"><path d="m408.144531 203.882812c0 112.597657-91.28125 203.878907-203.882812 203.878907-112.597657 0-203.878907-91.28125-203.878907-203.878907 0-112.601562 91.28125-203.87890575 203.878907-203.87890575 112.601562 0 203.882812 91.27734375 203.882812 203.87890575zm0 0" fill="#0162a7"/><g fill="#004584"><path d="m204.261719.00390625c-6.957031-.00390625-13.910157.34765575-20.835938 1.05078175 103.984375 10.695312 183.039063 98.296874 183.039063 202.828124 0 104.535157-79.054688 192.136719-183.039063 202.832032 6.925781.699218 13.878907 1.050781 20.835938 1.046875 112.601562 0 203.882812-91.28125 203.882812-203.878907 0-112.601562-91.28125-203.87890575-203.882812-203.87890575zm0 0"/><path d="m61.0625 246.515625c1.855469 0 3.636719-.738281 4.949219-2.054687l223.199219-223.199219c.59375-.597657 1.070312-1.300781 1.410156-2.070313-4.394532-2.058594-8.871094-3.960937-13.429688-5.703125l-221.082031 221.082031c-1.996094 2.003907-2.59375 5.011719-1.507813 7.625 1.082032 2.613282 3.632813 4.316407 6.460938 4.320313zm0 0"/><path d="m343.410156 54.929688c-3.40625-3.1875-6.917968-6.253907-10.53125-9.199219l-286.765625 286.800781c2.949219 3.617188 6.035157 7.121094 9.203125 10.527344.085938-.082032.183594-.136719.265625-.21875l287.601563-287.652344c.097656-.105469.15625-.175781.226562-.257812zm0 0"/><path d="m403.15625 195.335938-207.441406 207.4375c-1.253906 1.257812-1.980469 2.945312-2.027344 4.71875 3.503906.179687 7.027344.269531 10.574219.273437 2.152343 0 4.285156-.09375 6.421875-.164063l197.300781-197.300781c.066406-2.136719.164063-4.265625.164063-6.417969 0-3.546874-.09375-7.074218-.273438-10.578124-1.773438.050781-3.464844.777343-4.71875 2.03125zm0 0"/><path d="m399.464844 262.773438c2.007812-6.683594 3.667968-13.46875 4.976562-20.324219-2.300781-.476563-4.691406.238281-6.355468 1.902343l-153.320313 153.359376c-1.660156 1.660156-2.375 4.046874-1.902344 6.351562 6.859375-1.3125 13.644531-2.976562 20.332031-4.988281zm0 0"/><path d="m35.683594 318.550781c.394531-.261719.765625-.566406 1.097656-.902343l281.292969-281.25c.332031-.332032.625-.691407.886719-1.082032-3.914063-2.667968-7.9375-5.167968-12.039063-7.5625l-278.800781 278.761719c2.394531 4.097656 4.898437 8.125 7.5625 12.035156zm0 0"/><path d="m405.144531 169.1875c-.878906-5.109375-1.914062-10.164062-3.160156-15.136719-1.269531.289063-2.429687.925781-3.347656 1.84375l-242.375 242.359375c-.914063.921875-1.554688 2.082032-1.84375 3.347656 4.972656 1.25 10.023437 2.285157 15.132812 3.160157zm0 0"/><path d="m78.261719 364.109375 286.230469-286.226563c-2.894532-3.671874-5.871094-7.273437-9-10.734374-.117188.101562-.242188.175781-.351563.289062l-287.3125 287.324219c-.109375.109375-.1875.234375-.289063.351562 3.460938 3.128907 7.058594 6.109375 10.722657 8.996094zm0 0"/><path d="m395.972656 134.367188c-1.671875-4.609376-3.542968-9.113282-5.53125-13.558594-.8125.347656-1.550781.847656-2.179687 1.472656l-265.597657 265.601562c-.621093.625-1.121093 1.363282-1.464843 2.175782 4.445312 2 8.953125 3.855468 13.554687 5.527344zm0 0"/><path d="m382.113281 104.226562c-2.328125-4.148437-4.792969-8.203124-7.394531-12.164062-.421875.269531-.816406.582031-1.171875.933594l-280.128906 280.164062c-.359375.367188-.675781.769532-.945313 1.203125 3.957032 2.601563 8.011719 5.066407 12.160156 7.390625zm0 0"/></g><path d="m137.011719 203.882812c.007812-86.265624 54.292969-163.195312 135.566406-192.117187-84.515625-30.027344-178.730469-1.296875-232.105469 70.785156s-53.375 170.578125 0 242.660157c53.375 72.078124 147.589844 100.8125 232.105469 70.78125-81.273437-28.917969-135.558594-105.84375-135.566406-192.109376zm0 0" fill="#d9ecf2"/><path d="m137.011719 203.882812c.007812-86.265624 54.292969-163.195312 135.566406-192.117187-21.929687-7.800781-45.039063-11.7773438-68.316406-11.76171875-3.878907 0-7.726563.12890575-11.554688.34765575 19.460938 1.050782 38.671875 4.898438 57.039063 11.417969-81.277344 28.914063-135.566406 105.847657-135.566406 192.113281 0 86.269532 54.289062 163.203126 135.566406 192.113282-18.367188 6.523437-37.578125 10.367187-57.039063 11.421875 3.828125.210937 7.675781.347656 11.554688.347656 23.277343.015625 46.386719-3.964844 68.316406-11.769531-81.273437-28.917969-135.558594-105.847656-135.566406-192.113282zm0 0" fill="#bdd9e5"/><path d="m133.007812 292.402344c7.574219-.007813 15.042969-1.75 21.839844-5.097656-11.789062-26.230469-17.867187-54.664063-17.835937-83.421876 0-3.648437.132812-7.269531.320312-10.867187-1.429687-.125-2.863281-.222656-4.324219-.222656-27.257812.347656-49.171874 22.542969-49.171874 49.800781 0 27.261719 21.914062 49.453125 49.171874 49.800781zm0 0" fill="#bdd9e5"/><path d="m110.710938 55.757812c17.410156-6.035156 26.761718-24.917968 21.011718-42.421874-20.710937 7.882812-40 19.097656-57.101562 33.199218 9.09375 10.027344 23.300781 13.660156 36.089844 9.222656zm0 0" fill="#bdd9e5"/><path d="m8.558594 146.730469h51.835937c8.9375 0 16.179688-7.246094 16.179688-16.179688 0-8.9375-7.242188-16.179687-16.179688-16.179687h-39.332031c-5.085938 10.40625-9.269531 21.234375-12.503906 32.359375zm0 0" fill="#bdd9e5"/><path d="m156.164062 354.589844c0-8.9375-7.246093-16.179688-16.179687-16.179688h-88.851563c10.703126 12.175782 22.816407 23.039063 36.082032 32.359375h52.769531c8.933594 0 16.179687-7.242187 16.179687-16.179687zm0 0" fill="#bdd9e5"/></svg>