<svg height="432pt" viewBox="-20 0 432 432.63229" width="432pt" xmlns="http://www.w3.org/2000/svg"><path d="m172.457031 242.738281c-46.121093-75.550781-41.917969-171.507812 10.636719-242.738281-96.957031 15.769531-171.347656 94.507812-181.589844 192.203125-10.242187 97.695313 46.199219 190.148437 137.777344 225.683594 91.578125 35.535156 195.609375 5.347656 253.941406-73.6875-87.367187 14.195312-174.636718-25.914063-220.765625-101.460938zm0 0" fill="#d9ecf2"/><path d="m172.457031 242.738281c-46.121093-75.550781-41.917969-171.507812 10.636719-242.738281-26.921875 4.378906-52.777344 13.789062-76.214844 27.746094 9.609375-2.972656 19.414063-5.273438 29.339844-6.890625-52.554688 71.226562-56.761719 167.183593-10.640625 242.734375 46.121094 75.554687 133.394531 115.664062 220.765625 101.46875-16.714844 22.683594-37.6875 41.890625-61.746094 56.554687-.800781.496094-1.644531.933594-2.460937 1.417969 44.492187-13.75 83.417969-41.371094 111.085937-78.828125-87.371094 14.191406-174.636718-25.914063-220.765625-101.464844zm0 0" fill="#bdd9e5"/><path d="m227.726562 303.578125c-7.136718 9.285156-8.167968 21.894531-2.628906 32.214844 5.539063 10.316406 16.613282 16.429687 28.296875 15.613281 11.679688-.8125 21.800781-8.40625 25.851563-19.394531-18.382813-7.097657-35.714844-16.660157-51.519532-28.433594zm0 0" fill="#d9ecf2"/><g fill="#bdd9e5"><path d="m155.367188 423.40625c8.03125-18.546875.21875-40.140625-17.824219-49.25-18.042969-9.113281-40.058594-2.582031-50.21875 14.890625 20.484375 15.367187 43.519531 27 68.042969 34.359375zm0 0"/><path d="m112.210938 195.863281c8.648437 14.167969 4.175781 32.664063-9.992188 41.3125-14.167969 8.648438-32.664062 4.175781-41.316406-9.992187-8.648438-14.167969-4.175782-32.664063 9.992187-41.3125 14.167969-8.652344 32.667969-4.175782 41.316407 9.992187zm0 0"/><path d="m158.765625 42.285156-69.503906 42.429688c-7.957031 5.050781-10.398438 15.546875-5.488281 23.589844 4.910156 8.042968 15.355468 10.671874 23.488281 5.90625l36.699219-22.398438c2.960937-17.035156 7.929687-33.660156 14.804687-49.527344zm0 0"/></g><path d="m158.746094 42.300781-51.027344 31.148438c-5.246094 13.945312-9.058594 28.390625-11.375 43.109375 3.804688.460937 7.652344-.367188 10.929688-2.351563l36.589843-22.339843c2.984375-17.050782 7.980469-33.691407 14.882813-49.566407zm0 0" fill="#d9ecf2"/><path d="m49.0625 352.179688 50.03125-30.539063c7.953125-5.050781 10.394531-15.546875 5.484375-23.589844-4.90625-8.042969-15.355469-10.671875-23.484375-5.90625l-51.601562 31.507813c.90625 1.570312 1.769531 3.15625 2.714843 4.714844 5.085938 8.304687 10.714844 16.257812 16.855469 23.8125zm0 0" fill="#bdd9e5"/><path d="m320.929688 112.78125-32.597657 4.039062 16.625-28.328124-13.917969-29.757813 32.082032 7.058594 23.996094-22.429688 3.203124 32.6875 28.746094 15.894531-30.097656 13.148438-6.230469 32.25zm0 0" fill="#fabe02"/><path d="m350.320312 76.050781-3.203124-32.6875-13.417969 38.484375 15.644531 9.53125-17.429688 10.578125 10.824219 35.386719 6.230469-32.25 30.097656-13.148438zm0 0" fill="#f59a1d"/><path d="m280.589844 239.761719-17.277344 19.296875-4.8125-25.453125-23.695312-10.46875 22.722656-12.441407 2.632812-25.769531 18.855469 17.765625 25.324219-5.460937-11.070313 23.421875 13.015625 22.398437zm0 0" fill="#fabe02"/><path d="m260.160156 184.925781 10.382813 31.414063 17.789062-4.816406-9.085937 14.066406 27.039062 17.460937-13.015625-22.398437 11.070313-23.421875-25.324219 5.460937zm0 0" fill="#f59a1d"/></svg>