<svg height="438pt" viewBox="0 -24 438 438" width="438pt" xmlns="http://www.w3.org/2000/svg"><path d="m217.351562 86.777344c-90.550781 0-163.960937 74.671875-163.960937 166.796875h327.921875c.003906-92.125-73.40625-166.796875-163.960938-166.796875zm0 0" fill="#fabe02"/><path d="m219 85.5c-5.359375 0-10.652344.277344-15.875.78125 84.210938 8.175781 148.457031 78.953125 148.464844 163.5625h31.753906c.003906-90.765625-73.578125-164.347656-164.34375-164.34375zm0 0" fill="#f59a1d"/><path d="m431 256.839844h-424c-3.867188 0-7-3.132813-7-7 0-3.867188 3.132812-7 7-7h424c3.867188 0 7 3.132812 7 7 0 3.867187-3.132812 7-7 7zm0 0" fill="#ff414d"/><path d="m256.050781 311.027344-37.050781-37.050782-37.050781 37.050782h23.746093v28.609375h26.609376v-28.609375zm0 0" fill="#d8283f"/><path d="m354.4375 346.640625h-13.9375c-3.867188 0-7-3.132813-7-7s3.132812-7 7-7h13.9375c3.863281 0 7 3.132813 7 7s-3.136719 7-7 7zm0 0" fill="#d8283f"/><path d="m316.246094 346.640625h-232.683594c-3.863281 0-7-3.132813-7-7s3.136719-7 7-7h232.683594c3.867187 0 7 3.132813 7 7s-3.132813 7-7 7zm0 0" fill="#d8283f"/><path d="m301.585938 389.574219h-114.339844c-3.863282 0-7-3.132813-7-7 0-3.863281 3.136718-7 7-7h114.339844c3.863281 0 7 3.136719 7 7 0 3.867187-3.136719 7-7 7zm0 0" fill="#93134a"/><path d="m158.761719 389.574219h-22.347657c-3.863281 0-7-3.132813-7-7 0-3.863281 3.136719-7 7-7h22.347657c3.863281 0 7 3.136719 7 7 0 3.867187-3.136719 7-7 7zm0 0" fill="#93134a"/><path d="m405.109375 301.738281h-64.984375c-3.867188 0-7-3.132812-7-7 0-3.863281 3.132812-7 7-7h64.984375c3.863281 0 7 3.136719 7 7 0 3.867188-3.136719 7-7 7zm0 0" fill="#ff414d"/><path d="m314.847656 301.738281h-35.015625c-3.867187 0-7-3.132812-7-7 0-3.863281 3.132813-7 7-7h35.015625c3.867188 0 7 3.136719 7 7 0 3.867188-3.132812 7-7 7zm0 0" fill="#ff414d"/><path d="m161.167969 301.738281h-71.335938c-3.867187 0-7-3.132812-7-7 0-3.863281 3.132813-7 7-7h71.335938c3.867187 0 7 3.136719 7 7 0 3.867188-3.132813 7-7 7zm0 0" fill="#ff414d"/><path d="m63.351562 301.738281h-30.460937c-3.863281 0-7-3.132812-7-7 0-3.863281 3.136719-7 7-7h30.460937c3.867188 0 7 3.136719 7 7 0 3.867188-3.132812 7-7 7zm0 0" fill="#ff414d"/><g fill="#fabe02"><path d="m217.351562 54.621094c-3.886718-.035156-7.011718-3.207032-6.984374-7.09375v-40.542969c0-3.859375 3.128906-6.984375 6.984374-6.984375 3.859376 0 6.984376 3.125 6.984376 6.984375v40.542969c.027343 3.886718-3.097657 7.058594-6.984376 7.09375zm0 0"/><path d="m116.085938 82.222656c-2.515626-.003906-4.828126-1.363281-6.058594-3.554687l-19.921875-35.101563c-1.929688-3.390625-.796875-7.703125 2.554687-9.703125 1.605469-.9375 3.519532-1.195312 5.316406-.703125 1.792969.488282 3.316407 1.679688 4.222657 3.304688l19.925781 35.097656c1.929688 3.394531.792969 7.703125-2.558594 9.707031-1.054687.621094-2.257812.953125-3.480468.953125zm0 0"/><path d="m41.933594 157.644531c-1.226563 0-2.433594-.328125-3.488282-.953125l-34.503906-20.261718c-3.34375-2.007813-4.472656-6.316407-2.542968-9.703126.90625-1.625 2.429687-2.8125 4.226562-3.304687 1.792969-.488281 3.710938-.234375 5.316406.707031l34.503906 20.261719c3.347657 2.003906 4.484376 6.3125 2.554688 9.707031-1.234375 2.191406-3.554688 3.546875-6.066406 3.546875zm0 0"/><path d="m392.777344 157.644531c-2.515625-.007812-4.828125-1.363281-6.058594-3.554687-1.929688-3.394532-.792969-7.703125 2.558594-9.707032l34.503906-20.261718c1.605469-.941406 3.519531-1.195313 5.316406-.707032 1.792969.488282 3.316406 1.679688 4.222656 3.304688 1.929688 3.394531.792969 7.703125-2.554687 9.707031l-34.503906 20.261719c-1.058594.625-2.261719.953125-3.484375.957031zm0 0"/><path d="m318.625 82.222656c-1.226562 0-2.433594-.328125-3.488281-.949218-3.34375-2.007813-4.46875-6.320313-2.535157-9.707032l19.921876-35.097656c.90625-1.625 2.429687-2.816406 4.222656-3.304688 1.796875-.492187 3.710937-.234374 5.316406.703126 3.351562 2 4.488281 6.3125 2.558594 9.703124l-19.941406 35.101563c-1.230469 2.191406-3.542969 3.546875-6.054688 3.550781zm0 0"/></g></svg>