<svg height="448pt" viewBox="-103 0 448 448.66" width="448pt" xmlns="http://www.w3.org/2000/svg"><path d="m33.589844 0h175.609375c18.367187 0 33.257812 14.890625 33.257812 33.261719v381.261719c0 18.371093-14.890625 33.261718-33.257812 33.261718h-175.609375c-18.367188 0-33.261719-14.890625-33.261719-33.261718v-381.261719c0-18.371094 14.894531-33.261719 33.261719-33.261719zm0 0" fill="#d9ecf2"/><path d="m208.519531.875h-22.304687c18.367187 0 33.257812 14.890625 33.257812 33.261719v381.261719c0 18.371093-14.890625 33.261718-33.257812 33.261718h22.308594c18.367187 0 33.257812-14.890625 33.257812-33.261718v-381.265626c0-18.371093-14.894531-33.257812-33.261719-33.257812zm0 0" fill="#bdd9e5"/><path d="m149.914062 326.253906v-212.957031c0-16.128906-13.074218-29.199219-29.199218-29.199219-16.128906 0-29.199219 13.070313-29.199219 29.199219v212.957031c-19.117187 12.851563-27.589844 36.6875-20.871094 58.722656 6.71875 22.03125 27.046875 37.085938 50.082031 37.085938 23.035157 0 43.367188-15.054688 50.085938-37.085938 6.71875-22.035156-1.753906-45.871093-20.871094-58.722656zm0 0" fill="#fabe02"/><path d="m83.113281 369.695312c-.007812-17.4375 8.667969-33.730468 23.144531-43.453124v-212.945313c.007813-13.28125 8.980469-24.886719 21.832032-28.238281-8.75-2.320313-18.085938-.433594-25.253906 5.097656-7.164063 5.535156-11.351563 14.085938-11.320313 23.140625v212.957031c-20.449219 13.515625-28.746094 39.433594-19.953125 62.316406 8.796875 22.878907 32.3125 36.566407 56.550781 32.914063-25.804687-3.648437-44.988281-25.726563-45-51.789063zm0 0" fill="#f59a1d"/><path d="m136.902344 344.125v-128.632812c0-3.867188-3.132813-7-7-7-3.867188 0-7 3.132812-7 7v128.632812c-12.824219 3.503906-21.078125 15.957031-19.308594 29.136719 1.769531 13.175781 13.011719 23.011719 26.308594 23.011719 13.292968 0 24.539062-9.835938 26.308594-23.011719 1.769531-13.179688-6.484376-25.632813-19.308594-29.136719zm0 0" fill="#f59a1d"/><path d="m120.714844 376.707031c-3.867188 0-7-3.132812-7-7v-154.214843c0-3.867188 3.132812-7 7-7 3.863281 0 7 3.132812 7 7v154.203124c.003906 1.859376-.734375 3.644532-2.046875 4.957032-1.3125 1.316406-3.09375 2.054687-4.953125 2.054687zm0 0" fill="#d8283f"/><path d="m147.257812 369.703125c0 14.660156-11.882812 26.542969-26.542968 26.542969s-26.542969-11.882813-26.542969-26.542969 11.882813-26.542969 26.542969-26.542969 26.542968 11.882813 26.542968 26.542969zm0 0" fill="#ff414d"/><path d="m120.714844 343.160156c-1.511719.003906-3.023438.136719-4.511719.398438 12.726563 2.1875 22.03125 13.222656 22.03125 26.136718 0 12.914063-9.304687 23.949219-22.03125 26.132813 9.882813 1.726563 19.898437-2.269531 25.875-10.328125s6.898437-18.800781 2.378906-27.761719c-4.519531-8.957031-13.707031-14.597656-23.742187-14.578125zm0 0" fill="#d8283f"/><g fill="#002d42"><path d="m60.628906 99.597656h-19.019531c-3.867187 0-7-3.136718-7-7 0-3.867187 3.132813-7 7-7h19.019531c3.867188 0 7 3.132813 7 7 0 3.863282-3.132812 7-7 7zm0 0"/><path d="m60.628906 130.320312h-19.019531c-3.867187 0-7-3.132812-7-7 0-3.867187 3.132813-7 7-7h19.019531c3.867188 0 7 3.132813 7 7 0 3.867188-3.132812 7-7 7zm0 0"/><path d="m60.628906 161.042969h-19.019531c-3.867187 0-7-3.132813-7-7 0-3.863281 3.132813-7 7-7h19.019531c3.867188 0 7 3.136719 7 7 0 3.867187-3.132812 7-7 7zm0 0"/><path d="m60.628906 191.765625h-19.019531c-3.867187 0-7-3.136719-7-7 0-3.867187 3.132813-7 7-7h19.019531c3.867188 0 7 3.132813 7 7 0 3.863281-3.132812 7-7 7zm0 0"/><path d="m60.628906 222.496094h-19.019531c-3.867187 0-7-3.132813-7-7 0-3.867188 3.132813-7 7-7h19.019531c3.867188 0 7 3.132812 7 7 0 3.867187-3.132812 7-7 7zm0 0"/><path d="m60.628906 253.210938h-19.019531c-3.867187 0-7-3.132813-7-7 0-3.863282 3.132813-7 7-7h19.019531c3.867188 0 7 3.136718 7 7 0 3.867187-3.132812 7-7 7zm0 0"/><path d="m60.628906 283.9375h-19.019531c-3.867187 0-7-3.136719-7-7 0-3.867188 3.132813-7 7-7h19.019531c3.867188 0 7 3.132812 7 7 0 3.863281-3.132812 7-7 7zm0 0"/><path d="m60.628906 314.664062h-19.019531c-3.867187 0-7-3.132812-7-7 0-3.867187 3.132813-7 7-7h19.019531c3.867188 0 7 3.132813 7 7 0 3.867188-3.132812 7-7 7zm0 0"/></g><path d="m210.21875 92.597656c0 9.570313-7.761719 17.332032-17.332031 17.332032-9.574219 0-17.332031-7.761719-17.332031-17.332032 0-9.574218 7.757812-17.332031 17.332031-17.332031 9.570312 0 17.332031 7.757813 17.332031 17.332031zm0 0" fill="#ff414d"/><path d="m192.886719 75.265625c-1.367188.011719-2.726563.1875-4.050781.523437 7.773437 1.855469 13.261718 8.804688 13.261718 16.800782 0 7.992187-5.488281 14.941406-13.261718 16.796875 6.492187 1.578125 13.3125-.726563 17.523437-5.914063s5.058594-12.335937 2.179687-18.367187c-2.878906-6.03125-8.972656-9.863281-15.652343-9.851563zm0 0" fill="#d8283f"/><path d="m82.660156 30.097656c.328125-8.210937 7.078125-14.699218 15.292969-14.699218 8.21875 0 14.96875 6.488281 15.292969 14.699218-.265625 8.25-7.035156 14.804688-15.292969 14.804688s-15.023437-6.554688-15.292969-14.804688zm23.300782 0c-.15625-4.394531-3.816407-7.84375-8.210938-7.742187-4.394531.101562-7.890625 3.714843-7.847656 8.109375.046875 4.398437 3.617187 7.941406 8.011718 7.949218 4.496094-.125 8.070313-3.820312 8.046876-8.316406zm0 0" fill="#002d42"/><path d="m131.382812 30.097656v8.722656h23.832032v10.851563h-23.832032v18.296875h-12.128906v-48.734375h38.367188v10.863281zm0 0" fill="#002d42"/></svg>