<svg height="447pt" viewBox="-27 0 447 447.784" width="447pt" xmlns="http://www.w3.org/2000/svg"><path d="m233.894531 148.882812c41.429688 41.425782 41.429688 108.59375 0 150.023438-41.429687 41.429688-108.597656 41.429688-150.027343 0-41.425782-41.429688-41.425782-108.597656 0-150.023438 41.429687-41.429687 108.597656-41.429687 150.027343 0zm0 0" fill="#fabe02"/><path d="m66.199219 138.222656c-1.855469.003906-3.636719-.734375-4.945313-2.050781l-18.230468-18.226563c-2.734376-2.734374-2.734376-7.167968 0-9.902343 2.734374-2.734375 7.167968-2.734375 9.902343 0l18.234375 18.25c1.992188 2.003906 2.582032 5.007812 1.496094 7.617187-1.082031 2.609375-3.628906 4.3125-6.457031 4.3125zm-27.144531 53.5625c1.003906-3.734375-1.210938-7.574218-4.945313-8.578125l-24.90625-6.671875c-3.734375-1-7.570313 1.214844-8.574219 4.949219-1 3.734375 1.21875 7.574219 4.953125 8.574219l24.898438 6.671875c1.792969.484375 3.707031.234375 5.316406-.691407 1.605469-.929687 2.78125-2.460937 3.257813-4.253906zm-29.851563 79.457032 24.90625-6.671876c3.734375-1 5.949219-4.835937 4.949219-8.574218-1-3.734375-4.839844-5.949219-8.574219-4.949219l-24.902344 6.671875c-3.734375 1.003906-5.953125 4.839844-4.953125 8.574219 1.003906 3.734375 4.839844 5.953125 8.574219 4.949219zm190.363281-172.125 6.671875-24.90625c1-3.734376-1.21875-7.570313-4.953125-8.574219-3.734375-1-7.570312 1.214843-8.574218 4.953125l-6.671876 24.902344c-1 3.734374 1.21875 7.574218 4.953126 8.574218 3.734374 1 7.570312-1.214844 8.574218-4.949218zm-72.800781 4.945312c3.738281-.996094 5.957031-4.832031 4.957031-8.570312l-6.671875-24.902344c-1-3.738282-4.835937-5.953125-8.570312-4.953125-3.738281 1.003906-5.953125 4.839843-4.953125 8.574219l6.671875 24.90625c.480469 1.792968 1.652343 3.324218 3.261719 4.253906 1.609374.925781 3.523437 1.175781 5.316406.691406zm147.964844 235.675781c1.3125-1.308593 2.050781-3.089843 2.050781-4.949219 0-1.855468-.738281-3.636718-2.050781-4.949218l-18.230469-18.226563c-2.757812-2.535156-7.027344-2.445312-9.675781.199219-2.652344 2.648438-2.75 6.914062-.222657 9.679688l18.226563 18.226562c1.3125 1.316406 3.09375 2.054688 4.949219 2.054688 1.859375 0 3.640625-.738282 4.953125-2.054688zm-18.230469-203.566406 18.230469-18.226563c2.730469-2.734374 2.730469-7.167968 0-9.902343-2.734375-2.734375-7.167969-2.734375-9.902344 0l-18.226563 18.25c-2.734374 2.734375-2.734374 7.164062 0 9.898437 2.734376 2.734375 7.164063 2.734375 9.898438 0zm-203.5625 203.566406 18.222656-18.246093c2.734375-2.734376 2.734375-7.167969 0-9.898438-2.734375-2.734375-7.164062-2.734375-9.898437 0l-18.230469 18.226562c-2.734375 2.734376-2.734375 7.164063 0 9.898438s7.167969 2.734375 9.902344 0zm264.195312-73.445312c1-3.726563-1.207031-7.558594-4.933593-8.570313l-24.914063-6.671875c-3.734375-1-7.574218 1.214844-8.574218 4.953125-1 3.734375 1.214843 7.570313 4.949218 8.570313l24.90625 6.671875c1.792969.484375 3.703125.230468 5.308594-.699219 1.609375-.929687 2.78125-2.460937 3.257812-4.253906zm-29.847656-69.5625 24.914063-6.671875c3.734375-1 5.953125-4.839844 4.953125-8.574219-1.003906-3.734375-4.839844-5.949219-8.574219-4.949219l-24.921875 6.675782c-3.734375 1-5.949219 4.839843-4.949219 8.574218s4.839844 5.953125 8.574219 4.949219zm-162.234375 180.464843 6.671875-24.902343c1.003906-3.734375-1.214844-7.574219-4.949218-8.574219-3.734376-1-7.570313 1.214844-8.574219 4.949219l-6.671875 24.902343c-1 3.734376 1.214844 7.574219 4.953125 8.574219 3.734375 1.003907 7.570312-1.214843 8.570312-4.949219zm76.238281 4.949219c3.734376-1 5.949219-4.84375 4.949219-8.578125l-6.671875-24.902344c-1.003906-3.734374-4.839844-5.949218-8.574218-4.949218-3.734376 1-5.953126 4.839844-4.953126 8.574218l6.671876 24.902344c.480468 1.796875 1.652343 3.324219 3.261718 4.253906 1.609375.929688 3.523438 1.179688 5.316406.695313zm0 0" fill="#fabe02"/><path d="m141.863281 119.203125v209.375c41.460938 6.753906 82.996094-11.59375 105.925781-46.785156 22.929688-35.195313 22.929688-80.605469 0-115.800781-22.929687-35.195313-64.464843-53.542969-105.925781-46.789063zm0 0" fill="#f59a1d"/><path d="m192.140625 0h167.609375c18.367188 0 33.257812 14.890625 33.257812 33.261719v381.261719c0 18.371093-14.890624 33.261718-33.257812 33.261718h-167.609375c-18.367187 0-33.261719-14.890625-33.261719-33.261718v-381.261719c0-18.371094 14.894532-33.261719 33.261719-33.261719zm0 0" fill="#d9ecf2"/><g fill="#bdd9e5"><path d="m226.199219 74.222656h-19c-3.863281 0-7-3.132812-7-7 0-3.863281 3.136719-7 7-7h19c3.867187 0 7 3.136719 7 7 0 3.867188-3.132813 7-7 7zm0 0"/><path d="m226.199219 104.949219h-19c-3.863281 0-7-3.136719-7-7 0-3.867188 3.136719-7 7-7h19c3.867187 0 7 3.132812 7 7 0 3.863281-3.132813 7-7 7zm0 0"/><path d="m226.199219 135.671875h-19c-3.863281 0-7-3.132813-7-7s3.136719-7 7-7h19c3.867187 0 7 3.132813 7 7s-3.132813 7-7 7zm0 0"/><path d="m226.199219 166.394531h-19c-3.863281 0-7-3.132812-7-7 0-3.863281 3.136719-7 7-7h19c3.867187 0 7 3.136719 7 7 0 3.867188-3.132813 7-7 7zm0 0"/><path d="m226.199219 197.121094h-19c-3.863281 0-7-3.136719-7-7 0-3.867188 3.136719-7 7-7h19c3.867187 0 7 3.132812 7 7 0 3.863281-3.132813 7-7 7zm0 0"/><path d="m226.199219 227.84375h-19c-3.863281 0-7-3.132812-7-7s3.136719-7 7-7h19c3.867187 0 7 3.132812 7 7s-3.132813 7-7 7zm0 0"/><path d="m226.199219 258.566406h-19c-3.863281 0-7-3.132812-7-7 0-3.863281 3.136719-7 7-7h19c3.867187 0 7 3.136719 7 7 0 3.867188-3.132813 7-7 7zm0 0"/><path d="m226.199219 289.292969h-19c-3.863281 0-7-3.136719-7-7 0-3.867188 3.136719-7 7-7h19c3.867187 0 7 3.132812 7 7 0 3.863281-3.132813 7-7 7zm0 0"/><path d="m359.75 0h-22.625c18.367188 0 33.257812 14.890625 33.257812 33.261719v381.261719c0 18.371093-14.890624 33.261718-33.257812 33.261718h22.625c18.367188 0 33.257812-14.890625 33.257812-33.261718v-381.261719c0-18.371094-14.890624-33.261719-33.257812-33.261719zm0 0"/></g><path d="m305.160156 305.0625v-228.9375c0-16.136719-13.078125-29.214844-29.214844-29.214844-16.132812 0-29.210937 13.078125-29.210937 29.214844v228.9375c-19.117187 12.855469-27.589844 36.691406-20.871094 58.726562 6.71875 22.03125 27.046875 37.085938 50.082031 37.085938 23.035157 0 43.367188-15.054688 50.085938-37.085938 6.71875-22.035156-1.753906-45.871093-20.871094-58.726562zm0 0" fill="#fabe02"/><path d="m292.472656 322.9375v-244.605469c0-3.867187-3.132812-7-7-7-3.867187 0-7 3.132813-7 7v244.605469c-12.824218 3.503906-21.078125 15.957031-19.308594 29.132812 1.769532 13.179688 13.011719 23.015626 26.308594 23.015626 13.292969 0 24.539063-9.835938 26.308594-23.015626 1.769531-13.175781-6.484375-25.628906-19.308594-29.132812zm0 0" fill="#f59a1d"/><path d="m237.800781 348.515625c-.011719-17.4375 8.667969-33.730469 23.144531-43.453125v-228.9375c.007813-13.386719 9.117188-25.054688 22.101563-28.308594-8.726563-2.234375-18-.296875-25.105469 5.242188-7.105468 5.539062-11.25 14.054687-11.21875 23.066406v228.9375c-20.390625 13.496094-28.695312 39.332031-19.984375 62.179688 8.714844 22.851562 32.109375 36.601562 56.308594 33.09375-25.910156-3.539063-45.234375-25.667969-45.246094-51.820313zm0 0" fill="#f59a1d"/><path d="m275.949219 355.515625c-3.867188 0-7-3.132813-7-7v-270.183594c0-3.867187 3.132812-7 7-7 3.867187 0 7 3.132813 7 7v270.183594c0 3.867187-3.132813 7-7 7zm0 0" fill="#d8283f"/><path d="m302.488281 348.515625c0 14.660156-11.882812 26.542969-26.542969 26.542969-14.660156 0-26.542968-11.882813-26.542968-26.542969s11.882812-26.542969 26.542968-26.542969c14.660157 0 26.542969 11.882813 26.542969 26.542969zm0 0" fill="#ff414d"/><path d="m275.945312 321.972656c-1.476562.011719-2.949218.144532-4.402343.398438 12.789062 2.128906 22.160156 13.191406 22.160156 26.152344 0 12.960937-9.371094 24.023437-22.160156 26.152343 9.871093 1.660157 19.835937-2.371093 25.769531-10.429687 5.933594-8.0625 6.828125-18.773438 2.3125-27.707032-4.515625-8.929687-13.671875-14.558593-23.679688-14.558593zm0 0" fill="#d8283f"/><path d="m215.859375 74.222656h-19.019531c-3.867188 0-7-3.132812-7-7 0-3.863281 3.132812-7 7-7h19.019531c3.867187 0 7 3.136719 7 7 0 3.867188-3.132813 7-7 7zm0 0" fill="#002d42"/><path d="m215.859375 104.949219h-19.019531c-3.867188 0-7-3.136719-7-7 0-3.867188 3.132812-7 7-7h19.019531c3.867187 0 7 3.132812 7 7 0 3.863281-3.132813 7-7 7zm0 0" fill="#002d42"/><path d="m215.859375 135.671875h-19.019531c-3.867188 0-7-3.132813-7-7s3.132812-7 7-7h19.019531c3.867187 0 7 3.132813 7 7s-3.132813 7-7 7zm0 0" fill="#002d42"/><path d="m215.859375 166.394531h-19.019531c-3.867188 0-7-3.132812-7-7 0-3.863281 3.132812-7 7-7h19.019531c3.867187 0 7 3.136719 7 7 0 3.867188-3.132813 7-7 7zm0 0" fill="#002d42"/><path d="m215.859375 197.121094h-19.019531c-3.867188 0-7-3.136719-7-7 0-3.867188 3.132812-7 7-7h19.019531c3.867187 0 7 3.132812 7 7 0 3.863281-3.132813 7-7 7zm0 0" fill="#002d42"/><path d="m215.859375 227.84375h-19.019531c-3.867188 0-7-3.132812-7-7s3.132812-7 7-7h19.019531c3.867187 0 7 3.132812 7 7s-3.132813 7-7 7zm0 0" fill="#002d42"/><path d="m215.859375 258.566406h-19.019531c-3.867188 0-7-3.132812-7-7 0-3.863281 3.132812-7 7-7h19.019531c3.867187 0 7 3.136719 7 7 0 3.867188-3.132813 7-7 7zm0 0" fill="#002d42"/><path d="m215.859375 289.292969h-19.019531c-3.867188 0-7-3.136719-7-7 0-3.867188 3.132812-7 7-7h19.019531c3.867187 0 7 3.132812 7 7 0 3.863281-3.132813 7-7 7zm0 0" fill="#002d42"/><path d="m365.449219 67.222656c0 9.574219-7.761719 17.332032-17.332031 17.332032-9.574219 0-17.332032-7.757813-17.332032-17.332032 0-9.570312 7.757813-17.332031 17.332032-17.332031 9.570312 0 17.332031 7.761719 17.332031 17.332031zm0 0" fill="#ff414d"/><path d="m348.117188 49.890625c-1.582032.023437-3.152344.265625-4.667969.71875 7.476562 2.058594 12.65625 8.855469 12.65625 16.613281 0 7.753906-5.179688 14.554688-12.65625 16.613282 1.515625.453124 3.085937.695312 4.667969.714843 9.46875-.144531 17.066406-7.859375 17.066406-17.328125s-7.597656-17.1875-17.066406-17.332031zm0 0" fill="#d8283f"/></svg>