<svg height="458pt" viewBox="0 -44 458.22468 458" width="458pt" xmlns="http://www.w3.org/2000/svg"><path d="m357.0625 179.484375-127.945312 102.683594h67.367187l-42.355469 88.570312 133.25-119.511719h-64.730468zm0 0" fill="#fabe02"/><path d="m299.707031 251.226562h22.941407l34.414062-71.742187-37.308594 29.941406zm0 0" fill="#f59a1d"/><path d="m364.433594 251.226562-93.070313 83.476563-17.234375 36.035156 133.25-119.511719zm0 0" fill="#f59a1d"/><path d="m411.847656 110.488281c3.542969-27.746093-10.121094-54.867187-34.527344-68.53125-24.40625-13.667969-54.667968-11.148437-76.472656 6.371094-24.144531-35.710937-66.980468-53.953125-109.457031-46.617187-42.480469 7.339843-76.710937 38.898437-87.472656 80.640624-26.714844-13.082031-58.71875-8.429687-80.609375 11.710938s-29.183594 51.644531-18.371094 79.355469c10.816406 27.710937 37.523438 45.949219 67.269531 45.941406h331.199219c28.625.03125 52.441406-21.992187 54.652344-50.527344 2.207031-28.539062-17.933594-53.964843-46.222656-58.34375zm0 0" fill="#d9ecf2"/><g fill="#bdd9e5"><path d="m411.847656 110.488281c2.894532-22.464843-5.496094-44.910156-22.425781-59.964843-16.929687-15.050782-40.203125-20.765626-62.175781-15.261719 33.96875 8.109375 56.296875 40.609375 51.675781 75.226562 28.285156 4.378907 48.429687 29.804688 46.21875 58.34375-2.210937 28.535157-26.027344 50.558594-54.652344 50.527344h32.921875c28.625.03125 52.441406-21.992187 54.652344-50.527344 2.210938-28.539062-17.933594-53.964843-46.222656-58.34375zm0 0"/><path d="m99.691406 219.359375h69.632813l43.601562-90.871094zm0 0"/><path d="m76.816406 75.097656c5.9375 21.707032 15.714844 42.175782 28.871094 60.4375-4.789062-17.347656-5.386719-35.578125-1.75-53.199218-8.476562-4.171876-17.691406-6.628907-27.121094-7.238282zm0 0"/></g><path d="m192.910156 128.488281-162.058594 130.0625h85.335938l-53.65625 112.1875 169.847656-151.378906h-83.058594zm0 0" fill="#fabe02"/><path d="m209.433594 219.359375-129.859375 115.738281-17.042969 35.640625 169.847656-151.378906zm0 0" fill="#f59a1d"/><path d="m126.378906 219.359375h22.941406l43.589844-90.871094-37.308594 29.941407zm0 0" fill="#f59a1d"/></svg>