<svg height="447pt" viewBox="-102 0 447 447.784" width="447pt" xmlns="http://www.w3.org/2000/svg"><path d="m33.652344 0h175.609375c18.367187 0 33.257812 14.890625 33.257812 33.261719v381.261719c0 18.371093-14.890625 33.261718-33.257812 33.261718h-175.609375c-18.371094 0-33.261719-14.890625-33.261719-33.261718v-381.261719c0-18.371094 14.890625-33.261719 33.261719-33.261719zm0 0" fill="#d9ecf2"/><path d="m209.261719 0h-22.042969c18.371094 0 33.261719 14.890625 33.261719 33.261719v381.261719c0 18.371093-14.890625 33.261718-33.261719 33.261718h22.042969c18.367187 0 33.257812-14.890625 33.257812-33.261718v-381.265626c0-18.371093-14.890625-33.257812-33.257812-33.257812zm0 0" fill="#bdd9e5"/><path d="m150.65625 325.375v-212.953125c0-16.128906-13.074219-29.203125-29.199219-29.203125-16.128906 0-29.199219 13.074219-29.199219 29.203125v212.953125c-19.117187 12.855469-27.589843 36.691406-20.871093 58.722656 6.71875 22.035156 27.046875 37.089844 50.082031 37.089844s43.367188-15.054688 50.085938-37.089844c6.71875-22.03125-1.753907-45.867187-20.871094-58.722656zm0 0" fill="#fabe02"/><path d="m135.855469 343.246094v-36.457032c0-3.867187-3.132813-7-7-7-3.867188 0-7 3.132813-7 7v36.457032c-12.824219 3.507812-21.078125 15.960937-19.308594 29.136718 1.769531 13.179688 13.015625 23.011719 26.308594 23.011719 13.296875 0 24.539062-9.832031 26.308593-23.011719 1.769532-13.175781-6.484374-25.628906-19.308593-29.136718zm0 0" fill="#f59a1d"/><path d="m83.921875 368.820312c-.011719-17.433593 8.664063-33.722656 23.132813-43.445312v-212.953125c.011718-13.273437 8.96875-24.867187 21.804687-28.230469-8.753906-2.328125-18.09375-.453125-25.269531 5.082032-7.171875 5.53125-11.363282 14.085937-11.332032 23.148437v212.953125c-20.453124 13.523438-28.746093 39.445312-19.945312 62.328125s32.328125 36.566406 56.566406 32.902344c-25.785156-3.667969-44.949218-25.738281-44.957031-51.785157zm0 0" fill="#f59a1d"/><path d="m121.457031 375.832031c-3.867187 0-7-3.132812-7-7v-62.042969c0-3.867187 3.132813-7 7-7 3.863281 0 7 3.132813 7 7v62.03125c.003907 1.859376-.734375 3.640626-2.046875 4.957032s-3.09375 2.054687-4.953125 2.054687zm0 0" fill="#d8283f"/><path d="m148 368.828125c0 14.660156-11.882812 26.542969-26.542969 26.542969-14.660156 0-26.546875-11.882813-26.546875-26.542969s11.886719-26.542969 26.546875-26.542969c14.660157 0 26.542969 11.882813 26.542969 26.542969zm0 0" fill="#ff414d"/><g fill="#002d42"><path d="m61.371094 98.71875h-19.019532c-3.867187 0-7-3.132812-7-7 0-3.863281 3.132813-7 7-7h19.019532c3.867187 0 7 3.136719 7 7 0 3.867188-3.132813 7-7 7zm0 0"/><path d="m61.371094 129.445312h-19.019532c-3.867187 0-7-3.136718-7-7 0-3.867187 3.132813-7 7-7h19.019532c3.867187 0 7 3.132813 7 7 0 3.863282-3.132813 7-7 7zm0 0"/><path d="m61.371094 160.167969h-19.019532c-3.867187 0-7-3.132813-7-7 0-3.867188 3.132813-7 7-7h19.019532c3.867187 0 7 3.132812 7 7 0 3.867187-3.132813 7-7 7zm0 0"/><path d="m61.371094 190.886719h-19.019532c-3.867187 0-7-3.132813-7-7 0-3.863281 3.132813-7 7-7h19.019532c3.867187 0 7 3.136719 7 7 0 3.867187-3.132813 7-7 7zm0 0"/><path d="m61.371094 221.621094h-19.019532c-3.867187 0-7-3.136719-7-7 0-3.867188 3.132813-7 7-7h19.019532c3.867187 0 7 3.132812 7 7 0 3.863281-3.132813 7-7 7zm0 0"/><path d="m61.371094 252.335938h-19.019532c-3.867187 0-7-3.132813-7-7 0-3.867188 3.132813-7 7-7h19.019532c3.867187 0 7 3.132812 7 7 0 3.867187-3.132813 7-7 7zm0 0"/><path d="m61.371094 283.058594h-19.019532c-3.867187 0-7-3.132813-7-7 0-3.863282 3.132813-7 7-7h19.019532c3.867187 0 7 3.136718 7 7 0 3.867187-3.132813 7-7 7zm0 0"/><path d="m61.371094 313.789062h-19.019532c-3.867187 0-7-3.136718-7-7 0-3.867187 3.132813-7 7-7h19.019532c3.867187 0 7 3.132813 7 7 0 3.863282-3.132813 7-7 7zm0 0"/></g><path d="m210.960938 91.71875c0 9.574219-7.761719 17.332031-17.332032 17.332031-9.574218 0-17.332031-7.757812-17.332031-17.332031 0-9.570312 7.757813-17.332031 17.332031-17.332031 9.570313 0 17.332032 7.761719 17.332032 17.332031zm0 0" fill="#ff414d"/><path d="m193.628906 74.386719c-1.695312.019531-3.378906.289062-4.992187.800781 7.339843 2.140625 12.382812 8.867188 12.382812 16.511719s-5.042969 14.371093-12.382812 16.511719c1.613281.511718 3.296875.78125 4.992187.800781 9.46875-.144531 17.066406-7.859375 17.066406-17.328125 0-9.472656-7.597656-17.1875-17.066406-17.332032zm0 0" fill="#d8283f"/><path d="m82.222656 42.683594c0-14.746094 9.289063-25.175782 22.402344-25.175782 13.199219 0 22.398438 10.425782 22.398438 25.175782 0 14.824218-9.222657 25.253906-22.398438 25.253906-13.109375 0-22.402344-10.429688-22.402344-25.253906zm32.402344 0c0-8.296875-4.113281-14.183594-10-14.183594-5.8125 0-9.929688 5.886719-9.929688 14.183594s4.117188 14.257812 9.929688 14.257812c5.898438.003906 10.011719-5.953125 10.011719-14.257812zm0 0" fill="#002d42"/><path d="m131.457031 29.21875c.296875-8.226562 7.054688-14.746094 15.289063-14.746094s14.992187 6.519532 15.289062 14.746094c-.296875 8.230469-7.054687 14.75-15.289062 14.75s-14.992188-6.519531-15.289063-14.75zm23.296875 0c-.15625-4.398438-3.820312-7.855469-8.222656-7.753906-4.398438.105468-7.898438 3.730468-7.847656 8.128906.054687 4.402344 3.636718 7.945312 8.039062 7.941406 4.496094-.128906 8.066406-3.820312 8.046875-8.316406zm0 0" fill="#002d42"/></svg>