<svg height="407pt" viewBox="0 0 407 407.768" width="407pt" xmlns="http://www.w3.org/2000/svg"><path d="m408.144531 203.882812c0 112.601563-91.28125 203.882813-203.878906 203.882813-112.601563 0-203.882813-91.28125-203.882813-203.882813 0-112.597656 91.28125-203.87890575 203.882813-203.87890575 112.597656 0 203.878906 91.28124975 203.878906 203.87890575zm0 0" fill="#d9ecf2"/><path d="m169.347656 3.039062v401.6875c11.53125 2.011719 23.210938 3.027344 34.917969 3.042969v-407.769531c-11.707031.015625-23.386719 1.03125-34.917969 3.039062zm0 0" fill="#bdd9e5"/><path d="m211.46875 296.636719c0 15.421875-12.503906 27.921875-27.925781 27.921875s-27.921875-12.5-27.921875-27.921875 12.5-27.925781 27.921875-27.925781 27.925781 12.503906 27.925781 27.925781zm0 0" fill="#bdd9e5"/><path d="m204.265625 277.960938c-8.867187-9.898438-23.5-12.136719-34.917969-5.339844v48.03125c11.417969 6.792968 26.050782 4.554687 34.917969-5.339844zm0 0" fill="#d9ecf2"/><path d="m52.460938 339.949219c15.410156-10.921875 19.664062-31.949219 9.714843-48.007813-9.953125-16.054687-30.675781-21.597656-47.316406-12.652344 8.871094 22.273438 21.597656 42.808594 37.601563 60.660157zm0 0" fill="#bdd9e5"/><path d="m325.324219 165.167969c0 27.507812-22.296875 49.804687-49.804688 49.804687-27.503906 0-49.804687-22.296875-49.804687-49.804687 0-27.507813 22.300781-49.804688 49.804687-49.804688 27.507813 0 49.804688 22.296875 49.804688 49.804688zm0 0" fill="#bdd9e5"/><path d="m128.988281 137.023438c0 15.542968-12.601562 28.144531-28.144531 28.144531s-28.144531-12.601563-28.144531-28.144531c0-15.542969 12.601562-28.144532 28.144531-28.144532s28.144531 12.601563 28.144531 28.144532zm0 0" fill="#bdd9e5"/><path d="m199.214844 69.355469h158.179687c-10.703125-12.175781-22.816406-23.039063-36.082031-32.359375h-122.097656c-8.933594 0-16.179688 7.242187-16.179688 16.179687s7.246094 16.179688 16.179688 16.179688zm0 0" fill="#d9ecf2"/><path d="m399.96875 261.035156h-51.835938c-8.9375 0-16.179687 7.246094-16.179687 16.179688 0 8.9375 7.242187 16.179687 16.179687 16.179687h39.332032c5.085937-10.40625 9.269531-21.234375 12.503906-32.359375zm0 0" fill="#bdd9e5"/><path d="m2.265625 231.148438h54.871094c8.933593 0 16.179687-7.246094 16.179687-16.179688 0-8.9375-7.246094-16.179688-16.179687-16.179688h-56.625c-.039063 1.699219-.128907 3.382813-.128907 5.089844.023438 9.121094.648438 18.230469 1.882813 27.269532zm0 0" fill="#bdd9e5"/><path d="m408.148438 203.882812c0-112.601562-91.28125-203.882812-203.882813-203.882812v407.765625c112.601563 0 203.882813-91.28125 203.882813-203.882813zm0 0" fill="#0162a7"/><g fill="#004584"><path d="m204.265625 0v3.230469c97.15625 17.417969 167.878906 101.941406 167.878906 200.652343 0 98.707032-70.722656 183.234376-167.878906 200.648438v3.234375c112.597656 0 203.878906-91.28125 203.878906-203.882813 0-112.601562-91.28125-203.882812-203.878906-203.882812zm0 0"/><path d="m403.910156 162.398438c-1.03125-5-2.296875-9.914063-3.691406-14.773438-1.167969.308594-2.234375.917969-3.09375 1.765625l-192.859375 192.863281v16.898438c1.855469 0 3.636719-.738282 4.945313-2.050782zm0 0"/><path d="m204.265625 36.949219v16.882812c1.855469 0 3.636719-.738281 4.945313-2.050781l42.402343-42.402344c.917969-.921875 1.558594-2.085937 1.847657-3.359375-4.980469-1.234375-10.03125-2.277343-15.152344-3.132812zm0 0"/><path d="m396.664062 271.375c2.269532-6.472656 4.203126-13.054688 5.804688-19.722656-2.578125-.996094-5.5-.375-7.457031 1.574218l-142.507813 142.554688c-1.726562 1.730469-2.417968 4.242188-1.824218 6.613281 7.15625-1.660156 14.214843-3.710937 21.144531-6.136719zm0 0"/><path d="m402.847656 194.523438-198.582031 198.589843v14.652344c1.765625 0 3.519531-.089844 5.273437-.132813l198.472657-198.472656c.042969-1.761718.132812-3.503906.132812-5.277344 0-3.832031-.128906-7.628906-.335937-11.40625-1.859375-.007812-3.644532.730469-4.960938 2.046876zm0 0"/><path d="m383.710938 111.882812-179.445313 179.460938v16.898438c1.855469.003906 3.636719-.734376 4.945313-2.050782l182.523437-182.523437c-1.902344-4.445313-4-8.800781-6.195313-13.054688-.671874.320313-1.289062.75-1.828124 1.269531zm0 0"/><path d="m204.265625 87.808594v16.902344c1.851563 0 3.625-.734376 4.933594-2.046876l81.015625-80.960937c.589844-.597656 1.066406-1.296875 1.40625-2.0625-4.378906-2.082031-8.855469-3.976563-13.402344-5.746094zm0 0"/><path d="m204.265625 138.710938v16.890624c1.855469 0 3.636719-.738281 4.945313-2.054687l114.308593-114.34375c.125-.125.214844-.269531.328125-.398437-3.828125-2.78125-7.753906-5.425782-11.78125-7.945313zm0 0"/><path d="m204.265625 189.574219v16.902343c1.855469 0 3.636719-.738281 4.945313-2.050781l141.898437-141.898437c-3.238281-3.363282-6.558594-6.648438-10-9.78125zm0 0"/><path d="m364.8125 79.882812-160.546875 160.597657v16.894531c1.855469.003906 3.636719-.734375 4.945313-2.050781l164.613281-164.640625c-2.613281-3.90625-5.382813-7.695313-8.253907-11.402344-.265624.183594-.519531.382812-.757812.601562zm0 0"/></g></svg>