<svg height="463pt" viewBox="0 -61 463.26005 463" width="463pt" xmlns="http://www.w3.org/2000/svg"><path d="m223.332031.128906c-50.351562-.0624998-98.652343 19.949219-134.207031 55.601563l22.339844 22.371093h.035156l44.710938 44.710938c27.152343-27.144531 67.984374-35.261719 103.453124-20.566406 35.46875 14.695312 58.59375 49.3125 58.589844 87.707031v79.511719h94.882813v-79.511719h.035156c-.003906-104.839844-84.996094-189.828125-189.839844-189.824219zm0 0" fill="#b41d6c"/><path d="m210.066406 95.015625c-21.9375-.023437-43.199218 7.578125-60.152344 21.503906l6.296876 6.292969c16.175781-16.179688 37.664062-25.960938 60.488281-27.539062-2.191407-.15625-4.398438-.257813-6.632813-.257813zm0 0" fill="#93134a"/><path d="m223.332031.128906c-2.222656 0-4.429687.09375-6.636719.167969 102.1875 3.546875 183.199219 87.410156 183.210938 189.65625h-.035156v79.511719h13.265625v-79.511719h.035156c-.003906-104.839844-84.996094-189.828125-189.839844-189.824219zm0 0" fill="#93134a"/><path d="m223.332031 31.757812c-41.960937-.050781-82.207031 16.628907-111.832031 46.34375l44.710938 44.710938c27.152343-27.144531 67.984374-35.261719 103.453124-20.566406 35.46875 14.695312 58.59375 49.3125 58.589844 87.707031v79.511719h63.253906v-79.511719c.019532-87.367187-70.808593-158.203125-158.175781-158.195313zm0 0" fill="#ff414d"/><path d="m223.332031 31.757812c-2 0-3.976562.078126-5.957031.152344 84.980469 3.1875 152.222656 73.007813 152.214844 158.042969v79.511719h11.910156v-79.511719c.019531-87.363281-70.800781-158.195313-158.167969-158.195313zm0 0" fill="#d8283f"/><path d="m211.421875 95.015625c-22.269531-.019531-43.832031 7.820313-60.890625 22.136719l5.679688 5.683594c16.339843-16.355469 38.09375-26.171876 61.164062-27.601563-1.972656-.136719-3.953125-.21875-5.953125-.21875zm0 0" fill="#d8283f"/><path d="m223.332031 63.386719c-33.574219-.046875-65.78125 13.289062-89.496093 37.050781l22.371093 22.371094c27.152344-27.148438 67.984375-35.269532 103.457031-20.570313 35.472657 14.699219 58.597657 49.320313 58.589844 87.714844v79.511719h31.625v-79.511719c.011719-69.894531-56.648437-126.566406-126.546875-126.566406zm0 0" fill="#fabe02"/><path d="m213.058594 95.015625c-22.664063-.019531-44.582032 8.097656-61.765625 22.878906l4.914062 4.914063c16.542969-16.558594 38.628907-26.410156 62-27.65625-1.710937-.085938-3.417969-.136719-5.148437-.136719zm0 0" fill="#f59a1d"/><path d="m223.332031 63.386719c-1.722656 0-3.433593.058593-5.140625.128906 67.839844 2.746094 121.421875 58.542969 121.417969 126.4375v79.511719h10.269531v-79.511719c.011719-69.894531-56.648437-126.566406-126.546875-126.566406zm0 0" fill="#f59a1d"/><path d="m33.8125 77.191406c6.242188 0 12.363281 1.738282 17.671875 5.023438 6.125-23.070313 27.757813-38.554688 51.574219-36.914063 23.8125 1.636719 43.117187 19.941407 46.027344 43.632813 10.636718-2.609375 21.824218 1.140625 28.742187 9.632812 6.921875 8.488282 8.332031 20.203125 3.632813 30.09375-4.699219 9.894532-14.675782 16.195313-25.628907 16.195313h-122c-18.683593 0-33.832031-15.148438-33.832031-33.832031 0-18.6875 15.148438-33.832032 33.832031-33.832032zm0 0" fill="#d9ecf2"/><path d="m155.820312 88.09375c-2.273437.007812-4.539062.289062-6.75.839844-1.6875-13.984375-9.234374-26.597656-20.761718-34.695313-11.527344-8.101562-25.949219-10.921875-39.679688-7.769531 20.492188 4.628906 35.878906 21.617188 38.46875 42.464844 10.636719-2.609375 21.824219 1.140625 28.742188 9.632812 6.921875 8.488282 8.335937 20.203125 3.632812 30.09375-4.699218 9.894532-14.675781 16.195313-25.628906 16.195313h21.976562c15.257813-.574219 27.335938-13.109375 27.335938-28.382813 0-15.269531-12.078125-27.804687-27.335938-28.378906zm0 0" fill="#bdd9e5"/><path d="m59.757812 65.234375c-3.820312 5.078125-6.628906 10.84375-8.269531 16.984375 12.699219 7.636719 12.699219 23.550781 12.699219 23.550781s4.488281-23.09375-4.429688-40.535156zm0 0" fill="#bdd9e5"/><path d="m287.800781 261.664062c7.28125 0 14.417969 2.027344 20.609375 5.859376 7.15625-26.898438 32.378906-44.941407 60.144532-43.03125 27.765624 1.914062 50.277343 23.246093 53.675781 50.871093 12.417969-3.070312 25.492187 1.289063 33.578125 11.195313 8.085937 9.910156 9.738281 23.59375 4.238281 35.140625-5.496094 11.546875-17.15625 18.890625-29.945313 18.863281h-142.300781c-21.636719-.21875-39.0625-17.820312-39.0625-39.457031 0-21.640625 17.425781-39.242188 39.0625-39.460938zm0 0" fill="#d9ecf2"/><path d="m430.097656 274.378906c-2.652344.007813-5.296875.339844-7.871094.980469-1.972656-16.328125-10.789062-31.050781-24.253906-40.492187-13.464844-9.445313-30.308594-12.71875-46.332031-9.011719 23.867187 5.417969 41.78125 25.214843 44.800781 49.507812 12.414063-3.070312 25.488282 1.289063 33.574219 11.195313 8.085937 9.910156 9.738281 23.59375 4.242187 35.140625-5.5 11.546875-17.160156 18.890625-29.949218 18.863281h25.804687c18.28125 0 33.097657-14.820312 33.097657-33.101562s-14.816407-33.097657-33.097657-33.097657zm0 0" fill="#bdd9e5"/><path d="m320.691406 244.449219c-5.796875 6.65625-9.996094 14.546875-12.28125 23.074219 14.800782 8.902343 14.800782 27.464843 14.800782 27.464843 3.820312-16.757812 2.949218-34.242187-2.519532-50.539062zm0 0" fill="#bdd9e5"/><path d="m196.898438 212.730469c-4.730469 0-9.367188 1.320312-13.390626 3.808593-4.648437-17.476562-21.035156-29.199218-39.074218-27.957031-18.042969 1.242188-32.667969 15.101563-34.878906 33.046875-8.058594-1.972656-16.53125.871094-21.773438 7.304688s-6.3125 15.304687-2.75 22.800781c3.558594 7.496094 11.117188 12.269531 19.414062 12.273437h92.453126c14.160156 0 25.640624-11.480468 25.640624-25.640624 0-14.160157-11.480468-25.636719-25.640624-25.636719zm0 0" fill="#d9ecf2"/><g fill="#bdd9e5"><path d="m182.3125 212.890625c-.050781-.136719-.117188-.265625-.167969-.402344-.050781-.132812-.113281-.367187-.183593-.539062-.023438-.058594-.074219-.078125-.105469-.136719-6.621094-16.238281-23.621094-25.710938-40.914063-22.796875 9.433594 1.84375 17.847656 7.132813 23.597656 14.839844 4.859376 6.621093 7.671876 14.519531 8.09375 22.722656.195313 2.632813.617188 5.242187 1.257813 7.804687.15625-7.148437 3.738281-13.789062 9.625-17.84375-.34375-1.234374-.753906-2.445312-1.222656-3.636718zm0 0"/><path d="m196.898438 212.730469c-2.054688.015625-4.101563.285156-6.09375.800781 12.558593 3.136719 20.804687 15.144531 19.21875 27.992188-1.582032 12.847656-12.496094 22.496093-25.4375 22.492187h12.3125c14.160156 0 25.640624-11.480469 25.640624-25.640625s-11.480468-25.636719-25.640624-25.636719zm0 0"/></g></svg>