<svg height="451pt" viewBox="0 -40 451.688 451" width="451pt" xmlns="http://www.w3.org/2000/svg"><path d="m257.679688 188.386719c0 17.582031-14.253907 31.835937-31.832032 31.835937-17.582031 0-31.835937-14.253906-31.835937-31.835937.003906-17.578125 31.835937-63.574219 31.835937-63.574219s31.832032 45.996094 31.832032 63.574219zm-206.15625-63.574219s-31.832032 46-31.832032 63.574219c0 17.582031 14.253906 31.835937 31.835938 31.835937 17.582031 0 31.832031-14.253906 31.832031-31.835937-.003906-17.578125-31.835937-63.574219-31.835937-63.574219zm348.648437 0s-31.832031 46-31.832031 63.574219c0 17.582031 14.253906 31.835937 31.835937 31.835937 17.578125 0 31.832031-14.253906 31.832031-31.835937-.003906-17.578125-31.835937-63.574219-31.835937-63.574219zm-267.285156-124.464844s-31.839844 45.992188-31.839844 63.574219c0 17.578125 14.253906 31.832031 31.835937 31.832031 17.582032 0 31.832032-14.253906 31.832032-31.832031.007812-17.582031-31.828125-63.574219-31.828125-63.574219zm185.921875 0s-31.832032 46-31.832032 63.578125 14.253907 31.832031 31.832032 31.832031c17.582031 0 31.835937-14.253906 31.835937-31.832031.003907-17.585937-31.835937-63.578125-31.835937-63.578125zm0 0" fill="#26a3b9"/><g fill="#168aa5"><path d="m216 139.933594c9.351562 15.023437 22 37.378906 22 48.453125-.003906 13.789062-8.886719 26.007812-22 30.265625 9.691406 3.164062 20.3125 1.492187 28.5625-4.5 8.246094-5.988282 13.125-15.570313 13.117188-25.765625 0-17.578125-31.832032-63.574219-31.832032-63.574219s-4.359375 6.300781-9.847656 15.121094zm0 0"/><path d="m41.679688 139.933594c9.351562 15.023437 22 37.375 22 48.453125-.003907 13.789062-8.886719 26.007812-22 30.265625 9.691406 3.164062 20.3125 1.492187 28.5625-4.5 8.246093-5.988282 13.125-15.570313 13.117187-25.765625 0-17.597657-31.832031-63.574219-31.832031-63.574219s-4.359375 6.300781-9.847656 15.121094zm0 0"/><path d="m123.046875 15.464844c9.351563 15.023437 22 37.378906 22 48.457031-.003906 13.785156-8.886719 26.003906-22 30.261719 9.691406 3.164062 20.3125 1.492187 28.5625-4.5 8.25-5.988282 13.128906-15.570313 13.117187-25.761719 0-17.601563-31.832031-63.578125-31.832031-63.578125s-4.363281 6.300781-9.847656 15.121094zm0 0"/><path d="m318.808594.347656s-4.359375 6.300782-9.847656 15.121094c9.351562 15.023438 22 37.378906 22 48.457031-.007813 13.785157-8.886719 26.003907-22 30.261719 9.691406 3.167969 20.316406 1.496094 28.566406-4.496094 8.253906-5.988281 13.132812-15.574218 13.121094-25.769531 0-17.582031-31.839844-63.574219-31.839844-63.574219zm0 0"/><path d="m400.171875 124.8125s-4.359375 6.300781-9.847656 15.121094c9.351562 15.023437 22 37.375 22 48.453125-.003907 13.789062-8.886719 26.007812-22 30.265625 9.691406 3.164062 20.3125 1.492187 28.5625-4.5 8.246093-5.988282 13.125-15.570313 13.117187-25.765625 0-17.578125-31.832031-63.574219-31.832031-63.574219zm0 0"/></g><path d="m160.429688 344.875h183.878906c7.203125 0 13.039062 5.839844 13.039062 13.039062 0 7.203126-5.835937 13.042969-13.039062 13.042969h-183.878906c-7.203126 0-13.042969-5.839843-13.042969-13.042969 0-7.199218 5.839843-13.039062 13.042969-13.039062zm160.996093-52.726562c0 7.203124 5.835938 13.039062 13.039063 13.039062h51.335937c7.199219 0 13.039063-5.835938 13.039063-13.039062 0-7.203126-5.839844-13.039063-13.039063-13.039063h-51.339843c-7.199219 0-13.035157 5.839844-13.035157 13.039063zm-264.679687 0c0 7.203124 5.839844 13.039062 13.042968 13.039062h210.664063c7.199219 0 13.039063-5.835938 13.039063-13.039062 0-7.203126-5.839844-13.039063-13.039063-13.039063h-210.667969c-7.203125 0-13.042968 5.835937-13.042968 13.039063zm-56.746094 65.765624c0 7.203126 5.839844 13.042969 13.039062 13.042969h92.601563c7.199219 0 13.039063-5.839843 13.039063-13.042969 0-7.199218-5.839844-13.039062-13.039063-13.039062h-92.59375c-7.203125-.003906-13.046875 5.835938-13.046875 13.039062zm385.796875 0c0 7.203126 5.835937 13.042969 13.039063 13.042969h39.8125c7.203124 0 13.039062-5.839843 13.039062-13.042969 0-7.199218-5.835938-13.039062-13.039062-13.039062h-39.820313c-7.199219.003906-13.03125 5.84375-13.03125 13.039062zm0 0" fill="#d9ecf2"/><path d="m379.144531 292.152344c0 7.203125-5.839843 13.039062-13.039062 13.039062h19.691406c7.199219 0 13.039063-5.835937 13.039063-13.039062s-5.839844-13.039063-13.039063-13.039063h-19.691406c7.199219 0 13.039062 5.835938 13.039062 13.039063zm0 0" fill="#bdd9e5"/><path d="m273.800781 292.152344c0 7.203125-5.839843 13.039062-13.039062 13.039062h19.691406c7.199219 0 13.039063-5.835937 13.039063-13.039062s-5.839844-13.039063-13.039063-13.039063h-19.691406c7.199219 0 13.039062 5.835938 13.039062 13.039063zm0 0" fill="#bdd9e5"/><path d="m438.648438 344.875h-19.691407c7.199219 0 13.039063 5.839844 13.039063 13.039062 0 7.203126-5.839844 13.042969-13.039063 13.042969h19.691407c7.203124 0 13.039062-5.839843 13.039062-13.042969 0-7.199218-5.835938-13.039062-13.039062-13.039062zm0 0" fill="#bdd9e5"/><path d="m344.308594 344.875h-19.695313c7.199219 0 13.039063 5.839844 13.039063 13.039062 0 7.203126-5.839844 13.042969-13.039063 13.042969h19.691407c7.199218 0 13.039062-5.839843 13.039062-13.042969 0-7.199218-5.839844-13.039062-13.039062-13.039062zm0 0" fill="#bdd9e5"/><path d="m105.640625 344.875h-19.691406c7.199219 0 13.039062 5.839844 13.039062 13.039062 0 7.203126-5.839843 13.042969-13.039062 13.042969h19.691406c7.199219 0 13.039063-5.839843 13.039063-13.042969 0-7.199218-5.839844-13.039062-13.039063-13.039062zm0 0" fill="#bdd9e5"/></svg>