<svg height="438pt" viewBox="0 -24 438 438" width="438pt" xmlns="http://www.w3.org/2000/svg"><path d="m219 85.621094c-90.761719 0-164.339844 73.578125-164.339844 164.339844h328.683594c0-90.765626-73.578125-164.34375-164.34375-164.339844zm0 0" fill="#fabe02"/><path d="m219 85.621094c-5.359375 0-10.652344.273437-15.875.777344 84.210938 8.175781 148.457031 78.957031 148.464844 163.566406h31.753906c.003906-90.765625-73.578125-164.347656-164.34375-164.34375zm0 0" fill="#f59a1d"/><path d="m431 256.960938h-424c-3.867188 0-7-3.136719-7-7 0-3.867188 3.132812-7 7-7h424c3.867188 0 7 3.132812 7 7 0 3.863281-3.132812 7-7 7zm0 0" fill="#ff414d"/><path d="m181.949219 323.46875 37.050781 37.054688 37.050781-37.054688h-23.746093v-28.609375h-26.609376v28.609375zm0 0" fill="#ff414d"/><path d="m97.5 346.761719h-13.9375c-3.863281 0-7-3.136719-7-7 0-3.867188 3.136719-7 7-7h13.9375c3.867188 0 7 3.132812 7 7 0 3.863281-3.132812 7-7 7zm70.667969-7c0-3.867188-3.132813-7-7-7h-39.414063c-3.867187 0-7 3.132812-7 7 0 3.863281 3.132813 7 7 7h39.414063c3.867187 0 7-3.136719 7-7zm193.269531 0c0-3.867188-3.136719-7-7-7h-85.25c-3.867188 0-7 3.132812-7 7 0 3.863281 3.132812 7 7 7h85.25c3.863281 0 7-3.136719 7-7zm0 0" fill="#d8283f"/><path d="m301.585938 389.695312h-114.339844c-3.863282 0-7-3.132812-7-7 0-3.867187 3.136718-7 7-7h114.339844c3.863281 0 7 3.132813 7 7 0 3.867188-3.136719 7-7 7zm0 0" fill="#93134a"/><path d="m158.761719 389.695312h-22.347657c-3.863281 0-7-3.132812-7-7 0-3.867187 3.136719-7 7-7h22.347657c3.863281 0 7 3.132813 7 7 0 3.867188-3.136719 7-7 7zm0 0" fill="#93134a"/><path d="m405.109375 301.859375h-64.984375c-3.867188 0-7-3.132813-7-7s3.132812-7 7-7h64.984375c3.863281 0 7 3.132813 7 7s-3.136719 7-7 7zm0 0" fill="#ff414d"/><path d="m314.847656 301.859375h-25.601562c-3.863282 0-7-3.132813-7-7s3.136718-7 7-7h25.601562c3.867188 0 7 3.132813 7 7s-3.132812 7-7 7zm0 0" fill="#ff414d"/><path d="m260.425781 301.859375h-170.59375c-3.867187 0-7-3.132813-7-7s3.132813-7 7-7h170.59375c3.863281 0 7 3.132813 7 7s-3.136719 7-7 7zm0 0" fill="#ff414d"/><path d="m63.351562 301.859375h-30.460937c-3.863281 0-7-3.132813-7-7s3.136719-7 7-7h30.460937c3.867188 0 7 3.132813 7 7s-3.132812 7-7 7zm0 0" fill="#ff414d"/><g fill="#fabe02"><path d="m219 53.9375c-3.867188 0-7-3.136719-7-7v-39.9375c0-3.867188 3.132812-7 7-7s7 3.132812 7 7v39.9375c0 3.863281-3.132812 7-7 7zm0 0"/><path d="m117.496094 81.140625c-2.503906 0-4.816406-1.332031-6.066406-3.5l-19.96875-34.585937c-1.902344-3.34375-.75-7.597657 2.585937-9.519532 3.332031-1.925781 7.589844-.796875 9.539063 2.519532l19.964843 34.585937c1.25 2.164063 1.246094 4.832031 0 6.996094-1.25 2.164062-3.554687 3.5-6.054687 3.503906zm0 0"/><path d="m43.167969 155.453125c-1.226563 0-2.433594-.324219-3.496094-.941406l-34.582031-19.96875c-2.183594-1.242188-3.535156-3.558594-3.542969-6.070313-.003906-2.511718 1.335937-4.832031 3.515625-6.082031 2.175781-1.253906 4.859375-1.242187 7.027344.03125l34.582031 19.964844c2.746094 1.585937 4.085937 4.816406 3.265625 7.878906-.824219 3.0625-3.597656 5.191406-6.769531 5.1875zm0 0"/><path d="m394.832031 155.453125c-3.171875.003906-5.949219-2.125-6.773437-5.1875-.820313-3.0625.519531-6.292969 3.265625-7.878906l34.582031-19.964844c3.347656-1.902344 7.601562-.75 9.523438 2.582031 1.925781 3.332032.796874 7.59375-2.523438 9.539063l-34.582031 19.96875c-1.0625.617187-2.265625.941406-3.492188.941406zm0 0"/><path d="m320.503906 81.140625c-2.5-.003906-4.804687-1.339844-6.054687-3.503906-1.246094-2.164063-1.25-4.832031 0-6.996094l19.964843-34.59375c1.949219-3.320313 6.207032-4.445313 9.539063-2.519531 3.335937 1.921875 4.488281 6.175781 2.585937 9.519531l-19.964843 34.601563c-1.25 2.164062-3.566407 3.496093-6.070313 3.492187zm0 0"/></g></svg>