<svg height="447pt" viewBox="-102 0 447 447.788" width="447pt" xmlns="http://www.w3.org/2000/svg"><path d="m33.652344 0h175.609375c18.371093 0 33.261719 14.890625 33.261719 33.261719v381.261719c0 18.371093-14.890626 33.261718-33.261719 33.261718h-175.609375c-18.367188 0-33.257813-14.890625-33.257813-33.261718v-381.261719c0-18.371094 14.890625-33.261719 33.257813-33.261719zm0 0" fill="#d9ecf2"/><g fill="#bdd9e5"><path d="m72.78125 98.71875h-19.019531c-3.867188 0-7-3.132812-7-7 0-3.863281 3.132812-7 7-7h19.019531c3.867188 0 7 3.136719 7 7 0 3.867188-3.132812 7-7 7zm0 0"/><path d="m72.78125 129.445312h-19.019531c-3.867188 0-7-3.136718-7-7 0-3.867187 3.132812-7 7-7h19.019531c3.867188 0 7 3.132813 7 7 0 3.863282-3.132812 7-7 7zm0 0"/><path d="m72.78125 160.167969h-19.019531c-3.867188 0-7-3.132813-7-7 0-3.867188 3.132812-7 7-7h19.019531c3.867188 0 7 3.132812 7 7 0 3.867187-3.132812 7-7 7zm0 0"/><path d="m72.78125 190.890625h-19.019531c-3.867188 0-7-3.132813-7-7 0-3.863281 3.132812-7 7-7h19.019531c3.867188 0 7 3.136719 7 7 0 3.867187-3.132812 7-7 7zm0 0"/><path d="m72.78125 221.621094h-19.019531c-3.867188 0-7-3.136719-7-7 0-3.867188 3.132812-7 7-7h19.019531c3.867188 0 7 3.132812 7 7 0 3.863281-3.132812 7-7 7zm0 0"/><path d="m72.78125 252.335938h-19.019531c-3.867188 0-7-3.132813-7-7 0-3.867188 3.132812-7 7-7h19.019531c3.867188 0 7 3.132812 7 7 0 3.867187-3.132812 7-7 7zm0 0"/><path d="m72.78125 283.0625h-19.019531c-3.867188 0-7-3.132812-7-7 0-3.863281 3.132812-7 7-7h19.019531c3.867188 0 7 3.136719 7 7 0 3.867188-3.132812 7-7 7zm0 0"/><path d="m72.78125 313.785156h-19.019531c-3.867188 0-7-3.136718-7-7 0-3.867187 3.132812-7 7-7h19.019531c3.867188 0 7 3.132813 7 7 0 3.863282-3.132812 7-7 7zm0 0"/><path d="m209.261719 0h-26.542969c18.367188 0 33.257812 14.890625 33.257812 33.261719v381.265625c0 18.371094-14.890624 33.261718-33.257812 33.261718h26.542969c18.371093 0 33.261719-14.890624 33.261719-33.261718v-381.269532c-.003907-18.371093-14.894532-33.257812-33.261719-33.257812zm0 0"/></g><path d="m150.65625 325.375v-228.953125c0-16.128906-13.070312-29.203125-29.199219-29.203125-16.125 0-29.199219 13.074219-29.199219 29.203125v228.953125c-19.117187 12.855469-27.585937 36.691406-20.871093 58.722656 6.71875 22.035156 27.050781 37.089844 50.085937 37.089844s43.363282-15.054688 50.082032-37.089844c6.71875-22.03125-1.753907-45.867187-20.867188-58.722656zm0 0" fill="#fabe02"/><path d="m137.253906 343.246094v-244.597656c0-3.867188-3.132812-7-7-7-3.867187 0-7 3.132812-7 7v244.597656c-12.824218 3.507812-21.078125 15.960937-19.308594 29.136718 1.769532 13.179688 13.015626 23.011719 26.308594 23.011719 13.296875 0 24.539063-9.832031 26.308594-23.011719 1.769531-13.175781-6.484375-25.628906-19.308594-29.136718zm0 0" fill="#f59a1d"/><path d="m82.769531 368.820312c-.011719-17.4375 8.667969-33.730468 23.144531-43.453124v-228.945313c.007813-13.496094 9.257813-25.226563 22.378907-28.378906-8.699219-2.128907-17.894531-.132813-24.933594 5.40625-7.035156 5.542969-11.128906 14.015625-11.101563 22.972656v228.953125c-20.339843 13.472656-28.648437 39.226562-20.015624 62.046875 8.628906 22.816406 31.898437 36.628906 56.0625 33.269531-26.046876-3.410156-45.527344-25.601562-45.535157-51.871094zm0 0" fill="#f59a1d"/><path d="m121.457031 375.832031c-3.863281 0-7-3.132812-7-7v-270.183593c0-3.867188 3.136719-7 7-7 3.867188 0 7 3.132812 7 7v270.171874c.003907 1.859376-.730469 3.640626-2.046875 4.957032-1.3125 1.316406-3.09375 2.054687-4.953125 2.054687zm0 0" fill="#d8283f"/><path d="m148.003906 368.832031c0 14.660157-11.886718 26.542969-26.546875 26.542969-14.660156 0-26.542969-11.882812-26.542969-26.542969 0-14.660156 11.882813-26.542969 26.542969-26.542969 14.660157 0 26.546875 11.882813 26.546875 26.542969zm0 0" fill="#ff414d"/><path d="m121.457031 342.285156c-1.515625.003906-3.027343.136719-4.523437.398438 12.722656 2.191406 22.019531 13.222656 22.019531 26.132812s-9.296875 23.941406-22.019531 26.132813c9.886718 1.734375 19.90625-2.257813 25.890625-10.316407 5.984375-8.058593 6.910156-18.804687 2.386719-27.769531-4.523438-8.960937-13.714844-14.605469-23.753907-14.578125zm0 0" fill="#d8283f"/><path d="m61.375 98.71875h-19.015625c-3.867187 0-7-3.132812-7-7 0-3.863281 3.132813-7 7-7h19.019531c3.863282 0 7 3.136719 7 7 0 3.867188-3.136718 7-7 7zm0 0" fill="#002d42"/><path d="m61.375 129.445312h-19.015625c-3.867187 0-7-3.136718-7-7 0-3.867187 3.132813-7 7-7h19.019531c3.863282 0 7 3.132813 7 7 0 3.863282-3.136718 7-7 7zm0 0" fill="#002d42"/><path d="m61.375 160.167969h-19.015625c-3.867187 0-7-3.132813-7-7 0-3.867188 3.132813-7 7-7h19.019531c3.863282 0 7 3.132812 7 7 0 3.867187-3.136718 7-7 7zm0 0" fill="#002d42"/><path d="m61.375 190.890625h-19.015625c-3.867187 0-7-3.132813-7-7 0-3.863281 3.132813-7 7-7h19.019531c3.863282 0 7 3.136719 7 7 0 3.867187-3.136718 7-7 7zm0 0" fill="#002d42"/><path d="m61.375 221.621094h-19.015625c-3.867187 0-7-3.136719-7-7 0-3.867188 3.132813-7 7-7h19.019531c3.863282 0 7 3.132812 7 7 0 3.863281-3.136718 7-7 7zm0 0" fill="#002d42"/><path d="m61.375 252.335938h-19.015625c-3.867187 0-7-3.132813-7-7 0-3.867188 3.132813-7 7-7h19.019531c3.863282 0 7 3.132812 7 7 0 3.867187-3.136718 7-7 7zm0 0" fill="#002d42"/><path d="m61.375 283.0625h-19.015625c-3.867187 0-7-3.132812-7-7 0-3.863281 3.132813-7 7-7h19.019531c3.863282 0 7 3.136719 7 7 0 3.867188-3.136718 7-7 7zm0 0" fill="#002d42"/><path d="m61.375 313.785156h-19.015625c-3.867187 0-7-3.136718-7-7 0-3.867187 3.132813-7 7-7h19.019531c3.863282 0 7 3.132813 7 7 0 3.863282-3.136718 7-7 7zm0 0" fill="#002d42"/><path d="m210.960938 91.71875c0 9.574219-7.757813 17.332031-17.332032 17.332031-9.570312 0-17.332031-7.757812-17.332031-17.332031 0-9.570312 7.761719-17.332031 17.332031-17.332031 9.574219 0 17.332032 7.761719 17.332032 17.332031zm0 0" fill="#ff414d"/><path d="m193.628906 74.386719c-1.859375.023437-3.699218.347656-5.453125.960937 7.101563 2.292969 11.914063 8.90625 11.914063 16.367188 0 7.464844-4.8125 14.074218-11.914063 16.371094 1.753907.613281 3.59375.9375 5.453125.957031 6.253906.097656 12.074219-3.1875 15.230469-8.585938 3.15625-5.402343 3.15625-12.082031 0-17.484375s-8.976563-8.683594-15.230469-8.589844zm0 0" fill="#d8283f"/><path d="m83.273438 45.316406 12.800781-9.570312c3.875-2.917969 4.984375-4.832032 4.984375-6.945313-.066406-1.132812-.59375-2.191406-1.460938-2.925781-.867187-.730469-1.996094-1.074219-3.125-.949219-3.253906.15625-6.273437 1.742188-8.253906 4.332031l-5.394531-5.335937c3.289062-4.324219 8.417969-6.84375 13.851562-6.800781 7.75 0 13.199219 4.730468 13.199219 11.332031 0 4.582031-1.917969 8.15625-7.957031 12.28125l-5.4375 3.878906h13.75v7.703125h-26.957031zm0 0" fill="#002d42"/><path d="m113.347656 47.175781 4.929688-5.6875c2.367187 2.402344 5.59375 3.761719 8.964844 3.777344 3.472656 0 5.386718-1.460937 5.386718-3.476563 0-2.167968-1.664062-3.273437-6.042968-3.273437l-4.078126.050781v-7.25h4.078126c3.472656.050782 5.335937-1.109375 5.335937-3.121094 0-2.117187-2.0625-3.375-5.199219-3.375-3.007812.109376-5.84375 1.4375-7.855468 3.675782l-4.820313-5.234375c3.339844-4.039063 8.359375-6.308594 13.597656-6.144531 8.15625 0 13.042969 4.027343 13.042969 9.46875-.019531 3.804687-2.679688 7.089843-6.402344 7.902343 4.027344.59375 7.050782 3.988281 7.171875 8.054688 0 6.09375-5.390625 10.425781-13.746093 10.425781-5.398438.226562-10.632813-1.882812-14.363282-5.792969zm0 0" fill="#002d42"/><path d="m144.027344 27.941406c.257812-4.464844 3.953125-7.957031 8.425781-7.957031s8.167969 3.492187 8.425781 7.957031c-.257812 4.464844-3.953125 7.953125-8.425781 7.953125s-8.167969-3.488281-8.425781-7.953125zm12.152344 0c-.050782-2.046875-1.738282-3.671875-3.785157-3.640625-2.050781.03125-3.6875 1.707031-3.671875 3.757813.015625 2.046875 1.679688 3.695312 3.726563 3.699218 2.078125-.042968 3.738281-1.742187 3.730469-3.816406zm0 0" fill="#002d42"/></svg>