<svg height="447pt" viewBox="-106 0 447 447.784" width="447pt" xmlns="http://www.w3.org/2000/svg"><path d="m33.652344 0h167.609375c18.367187 0 33.257812 14.890625 33.257812 33.261719v381.261719c0 18.371093-14.890625 33.261718-33.257812 33.261718h-167.609375c-18.371094 0-33.261719-14.890625-33.261719-33.261718v-381.261719c0-18.371094 14.890625-33.261719 33.261719-33.261719zm0 0" fill="#d9ecf2"/><path d="m201.261719 0h-20.570313c18.371094 0 33.261719 14.890625 33.261719 33.261719v381.261719c0 18.371093-14.890625 33.261718-33.261719 33.261718h20.570313c18.367187 0 33.257812-14.890625 33.257812-33.261718v-381.261719c0-18.371094-14.890625-33.261719-33.257812-33.261719zm0 0" fill="#bdd9e5"/><path d="m146.65625 315.699219v-250.207031c0-16.132813-13.078125-29.214844-29.214844-29.214844-16.132812 0-29.214844 13.082031-29.214844 29.214844v250.207031c-19.117187 12.851562-27.585937 36.691406-20.867187 58.722656 6.71875 22.035156 27.046875 37.089844 50.082031 37.089844s43.367188-15.054688 50.085938-37.089844c6.714844-22.03125-1.753906-45.871094-20.871094-58.722656zm0 0" fill="#fabe02"/><path d="m79.164062 359.152344c-.011718-17.4375 8.667969-33.730469 23.144532-43.453125v-250.207031c.007812-13.414063 9.15625-25.097657 22.179687-28.324219-8.71875-2.199219-17.964843-.246094-25.050781 5.292969-7.082031 5.539062-11.210938 14.039062-11.179688 23.03125v250.207031c-20.375 13.492187-28.675781 39.300781-19.988281 62.140625s32.046875 36.605468 56.234375 33.144531c-25.953125-3.496094-45.328125-25.644531-45.339844-51.832031zm0 0" fill="#f59a1d"/><path d="m134.320312 333.570312v-265.875c0-3.867187-3.132812-7-7-7-3.867187 0-7 3.132813-7 7v265.875c-12.824218 3.507813-21.078124 15.960938-19.308593 29.136719s13.011719 23.011719 26.308593 23.011719c13.292969 0 24.539063-9.835938 26.308594-23.011719 1.769532-13.175781-6.484375-25.628906-19.308594-29.136719zm0 0" fill="#f59a1d"/><path d="m117.457031 366.152344c-3.867187 0-7-3.132813-7-7v-291.457032c0-3.867187 3.132813-7 7-7 3.863281 0 7 3.132813 7 7v291.457032c0 3.867187-3.136719 7-7 7zm0 0" fill="#d8283f"/><path d="m144 359.152344c0 14.660156-11.882812 26.542968-26.542969 26.542968-14.660156 0-26.546875-11.882812-26.546875-26.542968s11.886719-26.542969 26.546875-26.542969c14.660157 0 26.542969 11.882813 26.542969 26.542969zm0 0" fill="#ff414d"/><path d="m117.457031 332.609375c-1.449219.015625-2.894531.148437-4.320312.398437 12.8125 2.101563 22.21875 13.175782 22.21875 26.164063 0 12.984375-9.40625 24.058594-22.21875 26.160156 9.847656 1.589844 19.757812-2.476562 25.648437-10.527343 5.890625-8.054688 6.761719-18.730469 2.261719-27.632813-4.5-8.90625-13.613281-14.53125-23.589844-14.5625zm0 0" fill="#d8283f"/><g fill="#002d42"><path d="m57.996094 74.222656h-19.019532c-3.867187 0-7-3.132812-7-7 0-3.863281 3.132813-7 7-7h19.019532c3.867187 0 7 3.136719 7 7 0 3.867188-3.132813 7-7 7zm0 0"/><path d="m57.996094 104.953125h-19.019532c-3.867187 0-7-3.136719-7-7 0-3.867187 3.132813-7 7-7h19.019532c3.867187 0 7 3.132813 7 7 0 3.863281-3.132813 7-7 7zm0 0"/><path d="m57.996094 135.671875h-19.019532c-3.867187 0-7-3.132813-7-7s3.132813-7 7-7h19.019532c3.867187 0 7 3.132813 7 7s-3.132813 7-7 7zm0 0"/><path d="m57.996094 166.394531h-19.019532c-3.867187 0-7-3.132812-7-7 0-3.863281 3.132813-7 7-7h19.019532c3.867187 0 7 3.136719 7 7 0 3.867188-3.132813 7-7 7zm0 0"/><path d="m57.996094 197.125h-19.019532c-3.867187 0-7-3.136719-7-7 0-3.867188 3.132813-7 7-7h19.019532c3.867187 0 7 3.132812 7 7 0 3.863281-3.132813 7-7 7zm0 0"/><path d="m57.996094 227.84375h-19.019532c-3.867187 0-7-3.132812-7-7s3.132813-7 7-7h19.019532c3.867187 0 7 3.132812 7 7s-3.132813 7-7 7zm0 0"/><path d="m57.996094 258.566406h-19.019532c-3.867187 0-7-3.132812-7-7 0-3.863281 3.132813-7 7-7h19.019532c3.867187 0 7 3.136719 7 7 0 3.867188-3.132813 7-7 7zm0 0"/><path d="m57.996094 289.292969h-19.019532c-3.867187 0-7-3.136719-7-7 0-3.867188 3.132813-7 7-7h19.019532c3.867187 0 7 3.132812 7 7 0 3.863281-3.132813 7-7 7zm0 0"/><path d="m195.9375 135.671875h-19.023438c-3.863281 0-7-3.132813-7-7s3.136719-7 7-7h19.023438c3.863281 0 7 3.132813 7 7s-3.136719 7-7 7zm0 0"/><path d="m195.9375 166.394531h-19.023438c-3.863281 0-7-3.132812-7-7 0-3.863281 3.136719-7 7-7h19.023438c3.863281 0 7 3.136719 7 7 0 3.867188-3.136719 7-7 7zm0 0"/><path d="m195.9375 197.125h-19.023438c-3.863281 0-7-3.136719-7-7 0-3.867188 3.136719-7 7-7h19.023438c3.863281 0 7 3.132812 7 7 0 3.863281-3.136719 7-7 7zm0 0"/><path d="m195.9375 227.84375h-19.023438c-3.863281 0-7-3.132812-7-7s3.136719-7 7-7h19.023438c3.863281 0 7 3.132812 7 7s-3.136719 7-7 7zm0 0"/><path d="m195.9375 258.566406h-19.023438c-3.863281 0-7-3.132812-7-7 0-3.863281 3.136719-7 7-7h19.023438c3.863281 0 7 3.136719 7 7 0 3.867188-3.136719 7-7 7zm0 0"/><path d="m195.9375 289.292969h-19.023438c-3.863281 0-7-3.136719-7-7 0-3.867188 3.136719-7 7-7h19.023438c3.863281 0 7 3.132812 7 7 0 3.863281-3.136719 7-7 7zm0 0"/></g><path d="m206.960938 67.222656c0 9.574219-7.761719 17.332032-17.332032 17.332032-9.574218 0-17.332031-7.757813-17.332031-17.332032 0-9.570312 7.757813-17.332031 17.332031-17.332031 9.570313 0 17.332032 7.761719 17.332032 17.332031zm0 0" fill="#ff414d"/><path d="m189.628906 49.890625c-1.511718.023437-3.015625.242187-4.46875.65625 7.582032 1.988281 12.867188 8.839844 12.867188 16.675781 0 7.839844-5.285156 14.6875-12.867188 16.675782 1.453125.417968 2.957032.636718 4.46875.65625 9.46875-.140626 17.066406-7.859376 17.066406-17.328126s-7.597656-17.1875-17.066406-17.332031zm0 0" fill="#d8283f"/></svg>