<svg height="451pt" viewBox="-25 0 451 451.49175" width="451pt" xmlns="http://www.w3.org/2000/svg"><path d="m200.515625.0195312c-6.765625.5976568-11.910156 6.3359378-11.773437 13.1249998v389.882813c.207031 12.433594-8.992188 23.023437-21.332032 24.558594-6.644531.65625-13.257812-1.53125-18.207031-6.015626-4.949219-4.484374-7.769531-10.851562-7.769531-17.527343v-11.203125c0-6.871094-5.574219-12.441406-12.445313-12.441406-6.871093 0-12.441406 5.566406-12.445312 12.4375v8.5c-.335938 25.554687 18.792969 47.179687 44.195312 49.960937 13.578125 1.21875 27.039063-3.328125 37.097657-12.527344 10.0625-9.199219 15.789062-22.199219 15.789062-35.832031v-390.496094c0-3.414062-1.40625-6.679687-3.882812-9.027344-2.480469-2.351562-5.816407-3.578124-9.226563-3.3945308zm0 0" fill="#26a3b9"/><g fill="#168aa5"><path d="m200.515625.0195312c-1.9375.1171878-3.816406.7187498-5.464844 1.7499998 3.777344 2.230469 6.09375 6.289063 6.097657 10.671875v390.496094c-.003907 24.332031-18.019532 44.902344-42.140626 48.113281.578126.070313 1.148438.1875 1.734376.238281 13.574218 1.214844 27.035156-3.328124 37.09375-12.527343 10.058593-9.195313 15.789062-22.195313 15.789062-35.824219v-390.496094c0-3.414062-1.40625-6.679687-3.882812-9.027344-2.480469-2.351562-5.816407-3.578124-9.226563-3.3945308zm0 0"/><path d="m128.953125 392.828125v11.203125c0 6.675781 2.820313 13.042969 7.769531 17.527344 4.949219 4.484375 11.5625 6.671875 18.210938 6.015625 1.324218-.132813 2.636718-.386719 3.917968-.753907-10.28125-2.804687-17.414062-12.140624-17.417968-22.796874v-11.203126c-.003906-6.867187-5.570313-12.4375-12.441406-12.4375-2.199219.011719-4.351563.609376-6.242188 1.734376 3.832031 2.210937 6.191406 6.292968 6.203125 10.710937zm0 0"/><path d="m213.625 222.136719v-167.496094c-4.121094-.25-8.261719-.417969-12.441406-.417969-4.179688 0-8.324219.167969-12.441406.417969v167.496094c8.023437 9.128906 12.445312 20.867187 12.441406 33.019531-.003906-12.152344 4.417968-23.890625 12.441406-33.019531zm0 0"/></g><path d="m351.886719 178.238281c27.746093 0 50.238281 22.492188 50.238281 50.234375-.496094-110.625-90.3125-200.042968-200.9375-200.042968-110.628906 0-200.445312 89.417968-200.941406 200.042968-.1601565-18.050781 9.378906-34.804687 24.988281-43.878906s34.886719-9.074219 50.496094 0c15.605469 9.074219 25.148437 25.828125 24.984375 43.878906-.160156-18.050781 9.378906-34.804687 24.988281-43.878906s34.886719-9.074219 50.492187 0c15.609376 9.074219 25.148438 25.828125 24.988282 43.878906-.160156-18.050781 9.378906-34.804687 24.988281-43.878906 15.605469-9.074219 34.882813-9.074219 50.492187 0 15.609376 9.074219 25.148438 25.828125 24.988282 43.878906 0-27.742187 22.492187-50.234375 50.234375-50.234375zm0 0" fill="#d9ecf2"/><path d="m351.886719 132.476562c-27.742188 0-50.234375 22.492188-50.234375 50.238282-.246094-27.570313-22.664063-49.789063-50.234375-49.789063-27.570313 0-49.988281 22.21875-50.234375 49.789063-.246094-27.570313-22.664063-49.789063-50.234375-49.789063-27.570313 0-49.988281 22.21875-50.234375 49.789063.011718-19.320313-11.066406-36.933594-28.484375-45.292969-17.421875-8.359375-38.089844-5.976563-53.15625 6.121094-12.425781 26.585937-18.855469 55.582031-18.828125 84.929687.246094-27.566406 22.667968-49.785156 50.234375-49.785156 27.570312 0 49.988281 22.21875 50.234375 49.785156.246094-27.566406 22.664062-49.785156 50.234375-49.785156 27.570312 0 49.988281 22.21875 50.234375 49.785156.246094-27.566406 22.664062-49.785156 50.234375-49.785156 27.570312 0 49.988281 22.21875 50.234375 49.785156.246094-27.566406 22.664062-49.785156 50.234375-49.785156 27.570312 0 49.988281 22.21875 50.234375 49.785156.027344-29.347656-6.402344-58.34375-18.828125-84.929687-8.898438-7.167969-19.980469-11.074219-31.40625-11.066407zm0 0" fill="#bdd9e5"/><path d="m100.382812 222.886719c.214844 1.859375.324219 3.726562.328126 5.597656-.160157-18.050781 9.378906-34.804687 24.988281-43.878906s34.886719-9.074219 50.492187 0c15.609375 9.074219 25.148438 25.828125 24.988282 43.878906v-200.949219c-100.933594 48.050782-101.914063 168.203125-100.796876 195.351563zm0 0" fill="#ff414d"/><path d="m150.949219 132.476562c-19.828125.007813-37.796875 11.679688-45.863281 29.792969-3.8125 19.96875-5.390626 40.300781-4.703126 60.617188.214844 1.859375.324219 3.726562.328126 5.597656.246093-27.566406 22.664062-49.785156 50.234374-49.785156 27.570313 0 49.988282 22.21875 50.234376 49.785156v-45.769531c0-27.742188-22.488282-50.234375-50.230469-50.238282zm0 0" fill="#d8283f"/><path d="m201.183594 27.535156c100.9375 48.050782 101.921875 168.203125 100.800781 195.351563 2.949219-26.503907 26.09375-46.082031 52.71875-44.59375s47.445313 23.527343 47.421875 50.191406c.003906-110.980469-89.960938-200.949219-200.941406-200.949219zm0 0" fill="#ff414d"/><path d="m401.820312 217.589844c-.054687-1.046875-.167968-2.085938-.242187-3.132813-.179687-2.570312-.367187-5.136719-.640625-7.679687-.121094-1.125-.289062-2.234375-.429688-3.351563-.308593-2.46875-.632812-4.933593-1.03125-7.371093-.171874-1.058594-.375-2.105469-.566406-3.152344-.449218-2.507813-.925781-5.007813-1.46875-7.488282-.207031-.929687-.425781-1.851562-.640625-2.777343-.613281-2.609375-1.265625-5.199219-1.976562-7.777344-.207031-.761719-.429688-1.511719-.644531-2.269531-.800782-2.761719-1.65625-5.496094-2.566407-8.207032-.1875-.554687-.375-1.109374-.5625-1.660156-1.023437-2.949218-2.109375-5.867187-3.261719-8.757812-.125-.308594-.242187-.617188-.371093-.925782-1.300781-3.203124-2.675781-6.363281-4.125-9.488281-15.066407-12.097656-35.734375-14.480469-53.15625-6.121093-17.417969 8.359374-28.496094 25.972656-28.484375 45.292968-.003906-7.046875-1.492188-14.015625-4.375-20.445312 3.816406 19.964844 5.394531 40.292968 4.707031 60.609375.492187-4.40625 1.566406-8.726563 3.199219-12.84375.085937-.21875.152344-.441407.242187-.65625.398438-1.019531.902344-2 1.386719-2.992188.207031-.425781.398438-.859375.617188-1.277343.460937-.878907.972656-1.722657 1.484374-2.570313.300782-.492187.585938-.996094.898438-1.476563.507812-.777343 1.050781-1.519531 1.597656-2.265624.382813-.515626.753906-1.03125 1.148438-1.53125.550781-.6875 1.121094-1.347657 1.707031-2 .449219-.511719.90625-1.023438 1.378906-1.519532.582031-.609375 1.199219-1.199218 1.796875-1.773437.523438-.496094 1.054688-.984375 1.597656-1.457031.613282-.535157 1.238282-1.050782 1.875-1.546876.597657-.46875 1.203126-.917968 1.824219-1.363281.625-.445312 1.28125-.898437 1.9375-1.324219.65625-.421874 1.351563-.839843 2.039063-1.238281.6875-.402343 1.308594-.757812 2-1.109375.738281-.398437 1.492187-.734375 2.253906-1.082031.664062-.304687 1.324219-.617187 2-.894531.800781-.332032 1.648438-.617188 2.484375-.90625.660156-.230469 1.3125-.472656 2-.675782.898437-.273437 1.824219-.484374 2.742187-.710937.640626-.148437 1.273438-.332031 1.921876-.457031 1.042968-.210938 2.105468-.34375 3.171874-.484375.550782-.074219 1.09375-.179688 1.65625-.238281 1.632813-.160157 3.289063-.25 4.964844-.25 27.746094 0 50.238282 22.492187 50.238282 50.234374-.023438-3.65625-.136719-7.28125-.328126-10.886718zm0 0" fill="#d8283f"/></svg>