<svg height="458pt" viewBox="-97 0 458 458.51999" width="458pt" xmlns="http://www.w3.org/2000/svg"><path d="m.261719 0h264.140625v458.519531h-264.140625zm0 0" fill="#0162a7"/><path d="m233.0625 0h31.339844v458.519531h-31.339844zm0 0" fill="#004584"/><path d="m.261719 48.132812h264.140625v322.605469h-264.140625zm0 0" fill="#d9ecf2"/><g fill="#bdd9e5"><path d="m77.574219 155.441406c1.746093 1.867188 4.371093 2.632813 6.847656 2 2.476563-.632812 4.414063-2.5625 5.050781-5.039062.632813-2.476563-.128906-5.101563-1.996094-6.851563l-9.347656-9.359375c-2.734375-2.734375-7.167968-2.734375-9.902344 0-2.730468 2.734375-2.730468 7.167969 0 9.902344zm0 0"/><path d="m50.546875 183.953125 12.769531 3.417969c3.734375 1 7.574219-1.214844 8.574219-4.949219s-1.214844-7.574219-4.949219-8.574219l-12.769531-3.417968c-3.734375-1.003907-7.574219 1.214843-8.574219 4.949218s1.214844 7.574219 4.949219 8.574219zm0 0"/><path d="m71.890625 213.597656c-.476563-1.796875-1.652344-3.328125-3.261719-4.253906-1.605468-.929688-3.519531-1.179688-5.3125-.695312l-12.769531 3.417968c-3.734375 1.003906-5.949219 4.839844-4.949219 8.574219s4.839844 5.953125 8.574219 4.953125l12.769531-3.421875c3.734375-1 5.953125-4.839844 4.949219-8.574219zm0 0"/><path d="m145.632812 139.855469c3.734376 1 7.570313-1.214844 8.574219-4.949219l3.421875-12.765625c1-3.734375-1.214844-7.574219-4.949218-8.574219-3.734376-1-7.574219 1.214844-8.574219 4.949219l-3.421875 12.769531c-1 3.730469 1.214844 7.570313 4.949218 8.570313zm0 0"/><path d="m105.890625 134.90625c1.003906 3.734375 4.839844 5.953125 8.574219 4.953125 3.734375-1.003906 5.953125-4.839844 4.949218-8.574219l-3.417968-12.769531c-1-3.734375-4.839844-5.949219-8.574219-4.949219s-5.949219 4.839844-4.949219 8.574219zm0 0"/><path d="m177.570312 157.492188c1.859376 0 3.640626-.738282 4.949219-2.050782l9.347657-9.347656c1.820312-1.757812 2.550781-4.363281 1.910156-6.808594-.640625-2.449218-2.550782-4.359375-4.996094-5-2.449219-.640625-5.050781.085938-6.808594 1.90625l-9.347656 9.359375c-2 2.003907-2.601562 5.011719-1.515625 7.628907 1.082031 2.613281 3.632813 4.320312 6.460937 4.320312zm0 0"/><path d="m209.53125 212.066406-12.765625-3.417968c-3.734375-1-7.574219 1.214843-8.574219 4.949218-1.003906 3.734375 1.214844 7.574219 4.949219 8.574219l12.765625 3.421875c3.734375 1 7.574219-1.21875 8.574219-4.953125 1.003906-3.734375-1.214844-7.570313-4.949219-8.574219zm0 0"/><path d="m188.207031 182.433594c1.003907 3.730468 4.84375 5.945312 8.578125 4.945312l12.746094-3.425781c3.734375-1 5.953125-4.839844 4.949219-8.574219-1-3.734375-4.839844-5.953125-8.574219-4.949218l-12.765625 3.417968c-3.734375 1.007813-5.941406 4.851563-4.933594 8.585938zm0 0"/><path d="m203.320312 234.617188c-5.898437 0-11.683593 1.640624-16.699218 4.742187-.34375-1.296875-.746094-2.5625-1.199219-3.8125-.058594-.160156-.128906-.308594-.191406-.460937-.398438-1.101563-.847657-2.191407-1.335938-3.25l-.074219-.152344c-2.597656-5.589844-6.269531-10.617188-10.800781-14.800782.285157-.644531.566407-1.285156.800781-1.9375.046876-.128906.085938-.257812.136719-.402343 1.296875-3.453125 2.179688-7.046875 2.636719-10.707031 2.6875-21.382813-9.523438-41.851563-29.621094-49.644532-20.09375-7.789062-42.910156-.902344-55.339844 16.707032-12.425781 17.605468-11.273437 41.414062 2.796876 57.738281.324218.375.671874.734375 1 1.105469.453124.496093.871093 1.023437 1.355468 1.5.398438.402343.867188.777343 1.292969 1.171874-1.882813 4.226563-3.132813 8.710938-3.703125 13.300782-1.621094-.382813-3.273438-.617188-4.9375-.699219-.191406-2.730469-1.960938-5.097656-4.523438-6.050781-2.566406-.953125-5.453124-.316406-7.378906 1.628906l-9.308594 9.359375c-1.609374 1.613281-2.332031 3.910156-1.933593 6.15625-5.875 8.160156-6.6875 18.921875-2.101563 27.875 4.585938 8.949219 13.792969 14.578125 23.847656 14.578125h115.28125c17.652344 0 31.964844-14.308594 31.964844-31.964844 0-17.652344-14.3125-31.964844-31.964844-31.964844zm0 0"/><path d="m233.0625 48.132812h31.339844v322.605469h-31.339844zm0 0"/><path d="m43.554688 48.132812h-43.292969v26.941407l264.140625 264.144531v-70.238281zm0 0"/><path d="m182.476562 370.738281h39.988282l-222.203125-222.203125v39.988282zm0 0"/></g><path d="m151.785156 164.789062c18.351563 18.347657 18.351563 48.101563 0 66.449219-18.351562 18.351563-48.101562 18.351563-66.449218 0-18.351563-18.347656-18.351563-48.101562 0-66.449219 18.347656-18.351562 48.097656-18.351562 66.449218 0zm0 0" fill="#fabe02"/><path d="m151.785156 231.238281c7.382813-7.382812 12.082032-17.023437 13.347656-27.390625-12.140624-14.007812-31.375-19.574218-49.117187-14.21875-17.746094 5.355469-30.6875 20.636719-33.046875 39.019532.757812.882812 1.519531 1.765624 2.355469 2.609374 18.355469 18.351563 48.113281 18.34375 66.460937-.019531zm0 0" fill="#f59a1d"/><path d="m71.035156 157.492188c-1.855468 0-3.636718-.738282-4.945312-2.050782l-9.359375-9.347656c-2.730469-2.734375-2.730469-7.167969 0-9.902344 2.734375-2.734375 7.167969-2.734375 9.902343 0l9.351563 9.359375c2 2.003907 2.597656 5.011719 1.515625 7.628907-1.082031 2.613281-3.632812 4.320312-6.464844 4.320312zm0 0" fill="#fabe02"/><path d="m53.644531 187.621094c-.613281 0-1.222656-.082032-1.816406-.242188l-12.769531-3.425781c-3.734375-1-5.949219-4.839844-4.949219-8.574219s4.839844-5.953125 8.574219-4.949218l12.769531 3.417968c3.386719.910156 5.578125 4.191406 5.121094 7.671875s-3.421875 6.082031-6.929688 6.089844zm0 0" fill="#fabe02"/><path d="m40.867188 225.832031c-3.507813-.003906-6.472657-2.609375-6.929688-6.089843-.457031-3.476563 1.734375-6.757813 5.121094-7.671876l12.769531-3.417968c3.734375-1 7.574219 1.214844 8.574219 4.949218 1 3.734376-1.214844 7.574219-4.949219 8.574219l-12.769531 3.421875c-.59375.15625-1.203125.234375-1.816406.234375zm0 0" fill="#fabe02"/><path d="m135.957031 140.097656c-2.175781 0-4.226562-1.011718-5.550781-2.734375-1.324219-1.726562-1.773438-3.964843-1.214844-6.066406l3.421875-12.769531c1-3.734375 4.839844-5.949219 8.574219-4.949219s5.949219 4.839844 4.949219 8.574219l-3.40625 12.753906c-.820313 3.066406-3.601563 5.195312-6.773438 5.191406zm0 0" fill="#fabe02"/><path d="m101.160156 140.097656c-3.167968-.007812-5.941406-2.140625-6.757812-5.203125l-3.417969-12.765625c-1-3.734375 1.214844-7.574218 4.949219-8.574218s7.574218 1.214843 8.574218 4.949218l3.421876 12.769532c.558593 2.097656.109374 4.339843-1.214844 6.066406-1.328125 1.722656-3.375 2.730468-5.550782 2.730468zm0 0" fill="#fabe02"/><path d="m175.433594 261.882812c-1.859375.003907-3.640625-.734374-4.949219-2.050781l-9.351563-9.34375c-2.734374-2.734375-2.734374-7.167969 0-9.898437 2.734376-2.734375 7.164063-2.734375 9.898438 0l9.347656 9.363281c2 2 2.601563 5.011719 1.515625 7.625-1.082031 2.613281-3.632812 4.320313-6.460937 4.320313zm0 0" fill="#fabe02"/><path d="m166.078125 157.492188c-2.824219-.003907-5.371094-1.710938-6.453125-4.320313s-.488281-5.617187 1.507812-7.621094l9.347657-9.347656c2.734375-2.734375 7.164062-2.734375 9.898437 0s2.734375 7.167969 0 9.902344l-9.347656 9.347656c-1.3125 1.3125-3.09375 2.042969-4.953125 2.039063zm0 0" fill="#fabe02"/><path d="m61.6875 261.882812c-2.824219-.003906-5.371094-1.707031-6.453125-4.3125-1.082031-2.609374-.492187-5.613281 1.496094-7.617187l9.347656-9.347656c2.734375-2.734375 7.167969-2.734375 9.902344 0 2.734375 2.730469 2.734375 7.164062 0 9.898437l-9.347657 9.347656c-1.3125 1.308594-3.09375 2.039063-4.945312 2.03125zm0 0" fill="#fabe02"/><path d="m196.253906 225.832031c-.613281 0-1.226562-.082031-1.816406-.238281l-12.769531-3.421875c-3.734375-1-5.949219-4.839844-4.949219-8.574219s4.839844-5.949218 8.574219-4.949218l12.765625 3.417968c3.390625.914063 5.582031 4.195313 5.125 7.671875-.457032 3.480469-3.421875 6.085938-6.929688 6.089844zm0 0" fill="#fabe02"/><path d="m183.476562 187.621094c-3.511718-.003906-6.472656-2.609375-6.933593-6.089844-.457031-3.480469 1.734375-6.761719 5.125-7.671875l12.769531-3.417969c3.734375-1.003906 7.570312 1.214844 8.574219 4.949219 1 3.734375-1.21875 7.574219-4.953125 8.574219l-12.765625 3.417968c-.59375.160157-1.203125.238282-1.816407.238282zm0 0" fill="#fabe02"/><path d="m97.746094 282.699219c-2.171875 0-4.222656-1.007813-5.546875-2.734375-1.324219-1.722656-1.773438-3.964844-1.214844-6.066406l3.417969-12.765626c1-3.738281 4.839844-5.953124 8.574218-4.953124 3.738282.996093 5.953126 4.835937 4.957032 8.574218l-3.421875 12.765625c-.824219 3.058594-3.597657 5.179688-6.765625 5.179688zm0 0" fill="#fabe02"/><path d="m139.371094 282.699219c-3.167969-.003907-5.9375-2.136719-6.753906-5.199219l-3.425782-12.746094c-1-3.738281 1.214844-7.574218 4.949219-8.574218 3.734375-1.003907 7.574219 1.214843 8.574219 4.949218l3.421875 12.765625c.558593 2.101563.109375 4.34375-1.214844 6.066407-1.324219 1.726562-3.375 2.734374-5.550781 2.734374zm0 0" fill="#fabe02"/><path d="m191.828125 234.617188c-5.898437 0-11.679687 1.644531-16.695313 4.746093-5.796874-21.785156-26.230468-36.40625-48.722656-34.855469-22.492187 1.546876-40.730468 18.828126-43.484375 41.203126-10.050781-2.457032-20.617187 1.085937-27.148437 9.105468-6.535156 8.019532-7.871094 19.085938-3.429688 28.429688 4.4375 9.34375 13.859375 15.296875 24.203125 15.296875h115.277344c17.652344 0 31.964844-14.3125 31.964844-31.964844 0-17.65625-14.3125-31.964844-31.964844-31.964844zm0 0" fill="#26a3b9"/><path d="m163.132812 261.613281s0-15.039062 12-22.253906c-1.375-5.152344-3.621093-10.035156-6.640624-14.429687-6.191407 11.167968-8.097657 24.210937-5.359376 36.683593zm0 0" fill="#168aa5"/><path d="m109.089844 400.292969h46.484375c7.984375 0 14.453125 6.46875 14.453125 14.449219 0 7.980468-6.46875 14.449218-14.453125 14.449218h-46.484375c-7.984375 0-14.453125-6.46875-14.453125-14.449218 0-7.980469 6.46875-14.449219 14.453125-14.449219zm0 0" fill="#004584"/><path d="m125.6875 30.660156h-21.386719c-3.867187 0-7-3.132812-7-7 0-3.867187 3.132813-7 7-7h21.390625c3.867188 0 7 3.132813 7 7 0 3.867188-3.132812 7-7 7zm0 0" fill="#004584"/><path d="m160.363281 30.660156h-10.695312c-3.867188 0-7-3.132812-7-7 0-3.867187 3.132812-7 7-7h10.695312c3.867188 0 7 3.132813 7 7 0 3.867188-3.132812 7-7 7zm0 0" fill="#004584"/></svg>