<svg height="444pt" viewBox="0 -9 444.40801 444" width="444pt" xmlns="http://www.w3.org/2000/svg"><path d="m0 .203125h444.40625v319.734375h-444.40625zm0 0" fill="#d9ecf2"/><g fill="#bdd9e5"><path d="m400.347656.203125h44.058594v319.734375h-44.058594zm0 0"/><path d="m258.824219.203125h-75.5l261.082031 261.085937v-75.5zm0 0"/><path d="m150.679688.203125h-26.046876l319.726563 319.730469h.046875v-26zm0 0"/><path d="m0 97.289062 222.644531 222.644532h52.097657l-274.742188-274.742188zm0 0"/><path d="m237.960938 74.910156c3.734374 1.003906 7.570312-1.210937 8.574218-4.945312l3.601563-13.484375c1-3.734375-1.214844-7.574219-4.949219-8.574219s-7.574219 1.214844-8.574219 4.949219l-3.601562 13.484375c-1 3.734375 1.214843 7.570312 4.949219 8.570312zm0 0"/><path d="m271.585938 93.519531c1.855468.003907 3.636718-.734375 4.945312-2.050781l9.871094-9.882812c2.734375-2.734376 2.734375-7.167969 0-9.902344-2.730469-2.734375-7.164063-2.734375-9.898438 0l-9.867187 9.902344c-2 2-2.597657 5.007812-1.515625 7.625 1.082031 2.613281 3.632812 4.320312 6.464844 4.320312zm0 0"/><path d="m283.191406 120.144531c1.003906 3.734375 4.84375 5.949219 8.578125 4.949219l13.484375-3.601562c3.734375-1 5.949219-4.839844 4.949219-8.574219s-4.839844-5.949219-8.574219-4.949219l-13.484375 3.597656c-3.738281 1-5.953125 4.839844-4.953125 8.578125zm0 0"/><path d="m305.246094 151.914062-13.480469-3.597656c-3.734375-1-7.574219 1.214844-8.574219 4.949219-1.003906 3.734375 1.214844 7.574219 4.949219 8.574219l13.484375 3.601562c3.734375 1 7.570312-1.21875 8.574219-4.953125 1-3.734375-1.214844-7.570312-4.953125-8.574219zm0 0"/><path d="m166.277344 91.46875c2.757812 2.554688 7.042968 2.476562 9.703125-.183594 2.660156-2.65625 2.746093-6.9375.195312-9.699218l-9.871093-9.875c-1.730469-1.925782-4.378907-2.738282-6.894532-2.117188-2.511718.625-4.472656 2.582031-5.105468 5.09375-.628907 2.507812.179687 5.160156 2.097656 6.898438zm0 0"/><path d="m159.621094 153.253906c-1.003906-3.738281-4.84375-5.953125-8.578125-4.949218l-13.484375 3.597656c-3.734375 1.003906-5.949219 4.839844-4.949219 8.574218 1 3.734376 4.839844 5.953126 8.574219 4.953126l13.484375-3.601563c3.738281-1 5.953125-4.839844 4.953125-8.574219zm0 0"/><path d="m137.558594 121.480469 13.484375 3.597656c3.734375 1.003906 7.574219-1.214844 8.574219-4.949219s-1.214844-7.570312-4.949219-8.574218l-13.484375-3.597657c-3.734375-1-7.574219 1.214844-8.574219 4.949219s1.214844 7.574219 4.949219 8.574219zm0 0"/><path d="m196.277344 69.964844c1 3.734375 4.839844 5.949218 8.574218 4.949218 3.734376-1 5.949219-4.839843 4.949219-8.574218l-3.597656-13.484375c-1-3.734375-4.839844-5.949219-8.574219-4.949219s-5.949218 4.839844-4.949218 8.574219zm0 0"/><path d="m298.773438 175.347656c-6.230469 0-12.335938 1.738282-17.632813 5.011719-.335937-1.265625-.730469-2.515625-1.164063-3.738281-.171874-.492188-.378906-.964844-.570312-1.449219-.273438-.710937-.546875-1.425781-.855469-2.121094-.277343-.628906-.589843-1.242187-.894531-1.859375-.253906-.507812-.496094-1.023437-.765625-1.519531-.398437-.707031-.796875-1.394531-1.199219-2.082031-.222656-.375-.445312-.746094-.675781-1.109375-.484375-.761719-.996094-1.496094-1.515625-2.226563-.183594-.257812-.367188-.519531-.558594-.773437-.589844-.800781-1.203125-1.574219-1.839844-2.316407l-.402343-.480468c-.699219-.800782-1.421875-1.585938-2.171875-2.359375l-.230469-.230469c-.488281-.492188-.964844-.996094-1.476563-1.46875 1.847657-4.222656 3.097657-8.683594 3.710938-13.253906 3.089844-22.625-9.675781-44.433594-30.914062-52.820313-21.238282-8.386719-45.457032-1.183593-58.660157 17.449219-13.203125 18.628906-11.976562 43.867188 2.976563 61.128906.777344.898438 1.546875 1.804688 2.398437 2.660156.441407.4375.914063.800782 1.367188 1.238282-1.992188 4.460937-3.308594 9.195312-3.910157 14.042968-1.839843-.4375-3.714843-.695312-5.601562-.765624-.207031-2.71875-1.984375-5.066407-4.542969-6.003907-2.558593-.941406-5.429687-.300781-7.347656 1.636719l-9.894531 9.863281c-1.503906 1.511719-2.230469 3.636719-1.96875 5.753907-6.457032 8.570312-7.507813 20.050781-2.714844 29.648437s14.601562 15.65625 25.328125 15.644531h121.722656c18.640625 0 33.75-15.109375 33.75-33.75s-15.109375-33.753906-33.75-33.753906zm0 0"/></g><path d="m0 272.992188h444.40625v46.941406h-444.40625zm0 0" fill="#0162a7"/><path d="m400.347656 272.992188h44.058594v46.941406h-44.058594zm0 0" fill="#004584"/><path d="m242.742188 101.613281c19.378906 19.378907 19.378906 50.792969 0 70.167969-19.375 19.375-50.789063 19.375-70.164063 0-19.378906-19.375-19.378906-50.789062 0-70.167969 19.375-19.375 50.789063-19.375 70.164063 0zm0 0" fill="#fabe02"/><path d="m242.742188 171.78125c7.671874-7.667969 12.601562-17.648438 14.03125-28.402344-12.773438-14.675781-32.941407-20.535156-51.589844-14.988281-18.648438 5.546875-32.335938 21.476563-35.011719 40.746094.78125.898437 1.546875 1.804687 2.398437 2.660156 19.378907 19.382813 50.804688 19.375 70.171876-.015625zm0 0" fill="#f59a1d"/><path d="m157.480469 93.519531c-1.855469.003907-3.636719-.734375-4.949219-2.050781l-9.871094-9.882812c-2.734375-2.734376-2.734375-7.167969 0-9.902344s7.167969-2.734375 9.898438 0l9.875 9.902344c2 2 2.597656 5.007812 1.515625 7.625-1.085938 2.613281-3.636719 4.320312-6.464844 4.320312zm-11.601563 26.625c.992188-3.730469-1.222656-7.5625-4.949218-8.558593l-13.484376-3.601563c-3.734374-1-7.574218 1.214844-8.574218 4.949219s1.214844 7.574218 4.949218 8.574218l13.484376 3.601563c3.734374 1 7.570312-1.214844 8.574218-4.949219zm-18.433594 45.296875 13.484376-3.601562c3.734374-1 5.949218-4.839844 4.949218-8.574219s-4.839844-5.949219-8.574218-4.949219l-13.484376 3.597656c-3.734374 1.003907-5.949218 4.839844-4.949218 8.574219s4.839844 5.953125 8.574218 4.953125zm105.34375-95.476562 3.597657-13.484375c1.003906-3.734375-1.214844-7.574219-4.949219-8.574219s-7.574219 1.214844-8.574219 4.949219l-3.597656 13.484375c-1.003906 3.734375 1.214844 7.574218 4.949219 8.574218s7.574218-1.214843 8.574218-4.949218zm-41.679687 4.945312c3.734375-1 5.949219-4.839844 4.945313-8.574218l-3.597657-13.484376c-1-3.734374-4.839843-5.949218-8.574219-4.949218-3.734374 1-5.953124 4.839844-4.949218 8.574218l3.597656 13.484376c1.003906 3.734374 4.84375 5.945312 8.578125 4.945312zm81.554687 126.800782c1.3125-1.3125 2.050782-3.09375 2.050782-4.949219s-.738282-3.636719-2.050782-4.949219l-9.871093-9.871094c-2.734375-2.734375-7.167969-2.734375-9.902344 0-2.734375 2.730469-2.734375 7.164063 0 9.898438l9.875 9.871094c1.3125 1.316406 3.089844 2.054687 4.949219 2.054687 1.855468 0 3.636718-.738281 4.949218-2.054687zm-9.875-110.242188 9.871094-9.882812c2.734375-2.734376 2.734375-7.167969 0-9.902344s-7.167968-2.734375-9.898437 0l-9.871094 9.902344c-2.734375 2.730468-2.734375 7.164062 0 9.898437s7.167969 2.734375 9.902344 0zm-110.230468 110.230469 9.875-9.871094c2.730468-2.734375 2.730468-7.167969 0-9.898437-2.734375-2.734376-7.167969-2.734376-9.902344 0l-9.871094 9.871093c-2.734375 2.734375-2.734375 7.164063 0 9.898438s7.167969 2.734375 9.898438 0zm143.898437-41.199219c1-3.734375-1.214843-7.574219-4.949219-8.574219l-13.484374-3.601562c-3.734376-1-7.574219 1.214843-8.574219 4.949219-1 3.734374 1.214843 7.574218 4.949219 8.574218l13.484374 3.601563c3.734376 1 7.574219-1.214844 8.578126-4.949219zm-18.433593-35.398438 13.484374-3.601562c3.734376-1 5.949219-4.839844 4.949219-8.574219s-4.839843-5.949219-8.574219-4.949219l-13.484374 3.597657c-3.734376 1.003906-5.949219 4.839843-4.949219 8.574219 1 3.734374 4.839843 5.953124 8.574219 4.953124zm-85.578126 95.4375 3.597657-13.484374c1-3.734376-1.214844-7.570313-4.949219-8.574219-3.734375-1-7.574219 1.21875-8.574219 4.953125l-3.597656 13.480468c-1.003906 3.738282 1.214844 7.574219 4.949219 8.574219 3.734375 1.003907 7.570312-1.214843 8.574218-4.949219zm39.011719 4.949219c3.734375-1 5.949219-4.839843 4.945313-8.578125l-3.597656-13.480468c-1-3.734376-4.839844-5.953126-8.574219-4.953126-3.734375 1.003907-5.953125 4.839844-4.949219 8.574219l3.597656 13.484375c1.003906 3.734375 4.84375 5.949219 8.578125 4.949219zm0 0" fill="#fabe02"/><path d="m285.027344 175.347656c-6.226563 0-12.328125 1.734375-17.625 5.007813-6.125-23-27.695313-38.429688-51.441406-36.796875-23.75 1.636718-43.003907 19.878906-45.917969 43.5-10.609375-2.597656-21.769531 1.144531-28.667969 9.613281-6.902344 8.46875-8.3125 20.152344-3.625 30.019531 4.6875 9.867188 14.636719 16.15625 25.5625 16.15625h121.71875c18.640625 0 33.753906-15.109375 33.753906-33.75s-15.113281-33.753906-33.753906-33.753906zm0 0" fill="#26a3b9"/><path d="m252.015625 155.722656c-6.175781 19.382813 2.707031 48.128906 2.707031 48.128906s0-15.878906 12.667969-23.496093c-2.558594-9.558594-7.910156-18.136719-15.375-24.632813zm0 0" fill="#168aa5"/><path d="m282.953125 397.730469h-121.496094l27.132813-77.796875h67.230468zm0 0" fill="#26a3b9"/><path d="m255.820312 319.933594h-22.34375l27.132813 77.796875h22.34375zm0 0" fill="#168aa5"/><path d="m115.566406 397.730469h213.273438v27.636719h-213.273438zm0 0" fill="#0162a7"/><path d="m301.203125 397.730469h27.636719v27.636719h-27.636719zm0 0" fill="#004584"/><path d="m53.589844 38.609375c0 6.9375-5.625 12.5625-12.566406 12.5625-6.9375 0-12.5625-5.625-12.5625-12.5625 0-6.941406 5.625-12.566406 12.5625-12.566406 6.941406 0 12.566406 5.625 12.566406 12.566406zm0 0" fill="#ff414d"/><path d="m103.855469 38.609375c0 6.9375-5.625 12.5625-12.5625 12.5625-6.941407 0-12.566407-5.625-12.566407-12.5625 0-6.941406 5.625-12.566406 12.566407-12.566406 6.9375 0 12.5625 5.625 12.5625 12.566406zm0 0" fill="#fabe02"/><path d="m415.949219 45.609375h-31.203125c-3.863282 0-7-3.136719-7-7 0-3.867187 3.136718-7 7-7h31.203125c3.863281 0 7 3.132813 7 7 0 3.863281-3.136719 7-7 7zm7 15.796875c0-3.863281-3.136719-7-7-7h-31.203125c-3.863282 0-7 3.136719-7 7 0 3.867188 3.136718 7 7 7h31.203125c3.863281 0 7-3.132812 7-7zm0 0" fill="#002d42"/><path d="m256.519531 303.464844h-68.636719c-3.863281 0-7-3.136719-7-7 0-3.867188 3.136719-7 7-7h68.636719c3.867188 0 7 3.132812 7 7 0 3.863281-3.132812 7-7 7zm0 0" fill="#004584"/></svg>