<svg height="449pt" viewBox="-22 0 449 449.1545" width="449pt" xmlns="http://www.w3.org/2000/svg"><path d="m325.0625 12.976562c-4.445312.019532-8.746094 1.550782-12.195312 4.351563-1.144532-9.867187-9.5-17.3085938-19.433594-17.3085938-9.929688 0-18.285156 7.4414068-19.429688 17.3085938-7.667968-6.109375-18.671875-5.613281-25.757812 1.167969-7.085938 6.777344-8.074219 17.75-2.308594 25.683594-7.410156 3.726562-11.285156 12.0625-9.359375 20.132812s9.148437 13.753906 17.441406 13.734375c9.910157 0 62.800781-25.730469 71.035157-25.730469 10.859374 0 19.667968-8.808594 19.667968-19.667968 0-10.863282-8.808594-19.671876-19.667968-19.671876zm0 0" fill="#fabe02"/><path d="m325.0625 12.976562c-2.054688.015626-4.09375.359376-6.039062 1.027344 9.273437 2.886719 15.03125 12.132813 13.535156 21.730469s-9.792969 16.648437-19.503906 16.582031c-7.179688 0-48.242188 19.527344-65.25 24.554688 1.988281.761718 4.097656 1.160156 6.222656 1.175781 9.910156 0 62.800781-25.730469 71.035156-25.730469 10.859375 0 19.667969-8.808594 19.667969-19.667968 0-10.863282-8.808594-19.671876-19.667969-19.671876zm0 0" fill="#f59a1d"/><path d="m300.855469 17.308594c3.136719-2.5 6.960937-3.976563 10.960937-4.234375-1.632812-4.835938-5.121094-8.824219-9.699218-11.085938-4.578126-2.261719-9.867188-2.609375-14.699219-.964843 7.269531 2.347656 12.511719 8.703124 13.4375 16.285156zm0 0" fill="#f59a1d"/><path d="m191.914062 281.753906h30.046876v167.402344h-30.046876zm0 0" fill="#0162a7"/><path d="m209.15625 281.753906h12.800781v167.402344h-12.800781zm0 0" fill="#004584"/><path d="m221.960938 281.753906h-30.046876v14.425782c5.105469.679687 10.25 1.023437 15.402344 1.035156 4.898438-.011719 9.789063-.324219 14.644532-.941406zm0 0" fill="#004584"/><path d="m405.398438 343.585938-44.4375-36.921876v21.898438h-273.398438l-18.796875-21.898438h-63.378906l31.691406 36.921876-31.691406 36.925781h63.378906l18.796875-21.902344h273.398438v21.902344zm0 0" fill="#0162a7"/><g fill="#004584"><path d="m87.5625 328.5625-18.796875-21.898438h-16.871094l18.792969 21.898438zm0 0"/><path d="m51.894531 380.511719h16.871094l18.796875-21.902344h-16.875zm0 0"/><path d="m360.960938 306.664062v14.023438l27.558593 22.898438-27.558593 22.902343v14.023438l44.4375-36.925781zm0 0"/><path d="m191.914062 379.710938c9.617188 3.988281 20.429688 3.988281 30.046876 0v-72.25c-9.617188-3.984376-20.429688-3.984376-30.046876 0zm0 0"/><path d="m243.058594 328.578125h-72.246094c-3.988281 9.621094-3.988281 20.429687 0 30.046875h72.246094c3.984375-9.617188 3.984375-20.425781 0-30.046875zm0 0"/></g><path d="m294.738281 36.828125c-16.769531 0-30.363281 13.59375-30.363281 30.363281v75.679688h-174.835938v24.867187c0 65.050781 52.726563 117.785157 117.777344 117.792969 65.054688 0 117.792969-52.738281 117.792969-117.792969v-100.542969c.003906-16.773437-13.597656-30.375-30.371094-30.367187zm0 0" fill="#ff414d"/><path d="m294.738281 36.828125c-3.023437-.003906-6.027343.449219-8.917969 1.335937 12.746094 3.917969 21.449219 15.691407 21.449219 29.027344v100.546875c-.007812 61.585938-47.460937 112.765625-108.867187 117.425781 2.945312.21875 5.910156.371094 8.914062.371094 65.058594 0 117.796875-52.742187 117.792969-117.796875v-100.542969c.003906-16.773437-13.597656-30.375-30.371094-30.367187zm0 0" fill="#d8283f"/><path d="m115.609375 142.875h150.605469v15.894531c0 41.589844-33.714844 75.300781-75.300782 75.300781-41.589843.003907-75.304687-33.710937-75.304687-75.300781zm0 0" fill="#f59a1d"/><path d="m166.628906 142.875h99.601563v10.503906c.003906 27.507813-22.300781 49.808594-49.808594 49.800782-27.503906 0-49.796875-22.296876-49.792969-49.800782zm0 0" fill="#fabe02"/><path d="m325.109375 74.542969h26.429687c7.066407 0 12.796876 5.730469 12.796876 12.800781 0 7.066406-5.730469 12.796875-12.796876 12.796875h-26.429687zm0 0" fill="#fabe02"/><path d="m302.382812 84.257812c-3.867187 0-7-3.132812-7-7v-9.824218c0-3.863282 3.132813-7 7-7 3.863282 0 7 3.136718 7 7v9.824218c0 3.867188-3.136718 7-7 7zm0 0" fill="#002d42"/><path d="m.078125 22.351562h52.214844c20.566406-.007812 37.246093 16.664063 37.246093 37.230469v83.292969h-53.320312c-19.960938 0-36.140625-16.179688-36.140625-36.140625v-84.398437zm0 0" fill="#ff414d"/><path d="m52.292969 22.351562h-18.800781c20.5625 0 37.234374 16.667969 37.234374 37.230469v83.292969h18.796876v-83.292969c0-20.5625-16.667969-37.230469-37.230469-37.230469zm0 0" fill="#d8283f"/><path d="m89.539062 85.214844c0-20.5625-16.671874-37.230469-37.234374-37.230469h-52.226563v32.027344h52.214844c20.566406-.007813 37.246093 16.664062 37.246093 37.230469zm0 0" fill="#fabe02"/><path d="m70.015625 52.464844c.460937 2.347656.695313 4.730468.699219 7.121094v25.332031c11.621094 6.613281 18.796875 18.957031 18.796875 32.328125v-32.03125c.007812-13.667969-7.476563-26.238282-19.496094-32.75zm0 0" fill="#f59a1d"/><path d="m226.691406 363.335938-.003906.003906c-10.910156 10.910156-28.597656 10.910156-39.507812 0l-.003907-.003906c-10.910156-10.910157-10.910156-28.597657 0-39.507813l.003907-.003906c10.910156-10.910157 28.597656-10.910157 39.507812 0l.003906.003906c10.910156 10.910156 10.910156 28.597656 0 39.507813zm0 0" fill="#ff414d"/><path d="m226.6875 323.832031c-6.632812-6.632812-16.152344-9.488281-25.34375-7.601562 5.371094 1.082031 10.296875 3.726562 14.167969 7.601562 10.910156 10.910157 10.910156 28.597657 0 39.507813-3.871094 3.871094-8.796875 6.515625-14.167969 7.597656 9.191406 1.890625 18.710938-.964844 25.34375-7.597656 10.910156-10.910156 10.910156-28.597656 0-39.507813zm0 0" fill="#d8283f"/></svg>