<svg height="449pt" viewBox="-18 0 449 449.14801" width="449pt" xmlns="http://www.w3.org/2000/svg"><path d="m16.046875 87.0625h31.601563v362.085938h-31.601563zm0 0" fill="#0162a7"/><path d="m31.847656 87.0625h15.796875v362.085938h-15.796875zm0 0" fill="#004584"/><path d="m63.617188 31.773438c0 17.546874-14.222657 31.769531-31.769532 31.769531-17.550781 0-31.7734372-14.222657-31.7734372-31.769531 0-17.546876 14.2226562-31.773438 31.7734372-31.773438 17.546875 0 31.769532 14.226562 31.769532 31.773438zm0 0" fill="#0162a7"/><path d="m31.847656 0c-2.507812.0078125-5.003906.316406-7.4375.910156 14.273438 3.421875 24.339844 16.1875 24.339844 30.863282 0 14.679687-10.066406 27.441406-24.339844 30.863281 11.90625 2.867187 24.402344-1.363281 32.113282-10.875 7.710937-9.515625 9.265624-22.613281 3.996093-33.667969s-16.425781-18.09765625-28.671875-18.09375zm0 0" fill="#004584"/><path d="m3.679688 63.542969h56.339843v23.519531h-56.339843zm0 0" fill="#d9ecf2"/><path d="m41.746094 63.542969h18.273437v23.519531h-18.273437zm0 0" fill="#bdd9e5"/><path d="m104.4375 104.773438h23.808594v176.714843h-23.808594zm0 0" fill="#ff414d"/><path d="m104.4375 245.289062h23.808594v36.199219h-23.808594zm0 0" fill="#d8283f"/><path d="m412.089844 245.757812-283.84375 35.730469v-176.714843l283.84375 35.730468zm0 0" fill="#d9ecf2"/><path d="m128.246094 281.488281 283.84375-35.730469v-36.203124l-283.84375 35.734374zm0 0" fill="#bdd9e5"/><path d="m212.984375 270.820312 114.363281-14.394531v-126.589843l-114.363281-14.394532zm0 0" fill="#ff414d"/><path d="m327.347656 220.222656-114.363281 14.398438v36.199218l105.601563-13.292968 8.761718-1.101563zm0 0" fill="#d8283f"/><path d="m47.648438 117.691406h56.792968v20.824219h-56.792968zm0 0" fill="#d9ecf2"/><path d="m47.648438 247.742188h56.792968v20.824218h-56.792968zm0 0" fill="#d9ecf2"/><g fill="#bdd9e5"><path d="m79.964844 117.691406h24.472656v20.824219h-24.472656zm0 0"/><path d="m79.964844 247.742188h24.472656v20.824218h-24.472656zm0 0"/></g></svg>